M48
; DRILL file {KiCad 9.0.3} date 2026-07-19T12:35:22+0200
; FORMAT={-:-/ absolute / metric / decimal}
; #@! TF.CreationDate,2026-07-19T12:35:22+02:00
; #@! TF.GenerationSoftware,Kicad,Pcbnew,9.0.3
; #@! TF.FileFunction,Plated,1,4,PTH
FMAT,2
METRIC
; #@! TA.AperFunction,Plated,PTH,ViaDrill
T1C0.300
; #@! TA.AperFunction,Plated,PTH,ViaDrill
T2C0.400
; #@! TA.AperFunction,Plated,PTH,ComponentDrill
T3C0.600
; #@! TA.AperFunction,Plated,PTH,ComponentDrill
T4C1.000
; #@! TA.AperFunction,Plated,PTH,ComponentDrill
T5C1.500
%
G90
G05
T1
X124.78Y-136.82
X124.9Y-139.46
X125.11Y-129.28
X125.23Y-131.76
X129.02Y-103.02
X131.97Y-134.32
X132.17Y-101.49
X132.71Y-115.98
X135.28Y-102.81
X137.275Y-114.14
X137.39Y-97.64
X138.33Y-112.33
X139.173Y-117.073
X139.24Y-112.88
X140.04Y-100.42
X140.04Y-102.28
X140.55Y-97.61
X141.042Y-117.972
X141.61Y-109.21
X142.04Y-112.645
X142.04Y-114.84
X142.89Y-103.65
X143.05Y-114.91
X143.66Y-110.4
X144.545Y-108.32
X145.77Y-116.8
X146.01Y-113.38
X146.477Y-111.64
X147.989Y-108.364
X148.45Y-112.64
X148.45Y-122.56
X149.42Y-114.21
X150.256Y-108.305
X150.52Y-135.38
X150.55Y-132.88
X150.65Y-117.64
X151.74Y-113.37
X151.755Y-112.42
X152.428Y-107.718
X153.42Y-106.89
X153.564Y-109.54
X155.42Y-105.29
X155.421Y-111.44
X156.23Y-106.07
X156.55Y-108.32
X157.52Y-113.323
X158.03Y-108.31
X158.16Y-103.49
T2
X121.06Y-87.35
X121.17Y-124.16
X122.64Y-103.09
X123.827Y-120.623
X123.98Y-87.34
X124.02Y-98.16
X124.08Y-124.35
X124.28Y-123.01
X125.02Y-108.17
X125.14Y-125.75
X125.663Y-119.207
X125.69Y-104.21
X126.22Y-108.18
X126.61Y-103.26
X126.983Y-120.527
X127.23Y-98.22
X127.26Y-106.82
X128.03Y-93.275
X129.61Y-115.99
X130.22Y-95.8
X130.24Y-97.2
X130.88Y-99.75
X130.959Y-103.085
X131.856Y-93.45
X132.14Y-120.58
X132.28Y-95.72
X132.99Y-122.02
X133.13Y-108.19
X133.48Y-119.11
X134.31Y-108.18
X134.43Y-113.77
X134.45Y-110.71
X135.38Y-120.574
X135.41Y-106.88
X137.45Y-87.45
X138.35Y-115.72
X139.75Y-86.99
X139.782Y-119.302
X139.8Y-87.96
X140.655Y-105.05
X141.58Y-94.84
X141.61Y-88.91
X142.12Y-93.47
X142.6Y-141.6
X142.85Y-105.07
X143.44Y-99.62
X143.8Y-142.53
X144.39Y-135.21
X144.64Y-104.93
X144.78Y-137.67
X145.402Y-133.858
X145.69Y-103.99
X145.87Y-139.14
X145.87Y-140.69
X145.89Y-143.34
X146.58Y-133.41
X146.755Y-141.92
X147.31Y-116.13
X147.745Y-111.74
X148.358Y-136.015
X151.19Y-122.79
X151.23Y-121.32
X152.23Y-138.7
X153.15Y-122.79
X153.36Y-136.07
X153.39Y-141.84
X154.45Y-136.01
X154.48Y-143.19
X154.53Y-139.3
X154.65Y-117.42
X154.705Y-124.49
X155.46Y-141.85
X155.56Y-137.61
X155.6Y-116.4
X155.6Y-127.03
X155.75Y-129.24
X156.43Y-91.9
X156.49Y-143.19
X156.71Y-132.04
X156.855Y-115.885
X157.89Y-142.14
X158.18Y-90.21
X158.94Y-110.68
X159.052Y-103.942
X159.52Y-104.61
X159.8Y-132.0
X159.86Y-109.08
T4
X122.59Y-124.16
X122.59Y-126.7
X122.59Y-129.24
X122.59Y-131.78
X122.59Y-134.32
X122.59Y-136.86
X122.59Y-139.4
X122.59Y-141.94
X125.38Y-88.76
X127.92Y-88.76
X143.69Y-91.93
X143.69Y-94.43
X143.69Y-96.93
X158.19Y-91.93
X158.19Y-96.93
X158.34Y-119.33
X158.34Y-121.87
X158.34Y-124.41
X158.34Y-126.95
X158.34Y-129.49
X158.34Y-132.03
X158.34Y-134.57
T3
G00X145.87Y-137.125
M15
G01X145.87Y-138.225
M16
G05
G00X145.87Y-141.455
M15
G01X145.87Y-142.255
M16
G05
G00X154.51Y-137.125
M15
G01X154.51Y-138.225
M16
G05
G00X154.51Y-141.455
M15
G01X154.51Y-142.255
M16
G05
T5
G00X150.54Y-88.83
M15
G01X151.84Y-88.83
M16
G05
G00X150.54Y-100.03
M15
G01X151.84Y-100.03
M16
G05
M30
