%TF.GenerationSoftware,KiCad,Pcbnew,9.0.3*%
%TF.CreationDate,2026-07-19T12:35:17+02:00*%
%TF.ProjectId,STM32-S-Plant,53544d33-322d-4532-9d50-6c616e742e6b,rev?*%
%TF.SameCoordinates,Original*%
%TF.FileFunction,Legend,Top*%
%TF.FilePolarity,Positive*%
%FSLAX46Y46*%
G04 Gerber Fmt 4.6, Leading zero omitted, Abs format (unit mm)*
G04 Created by KiCad (PCBNEW 9.0.3) date 2026-07-19 12:35:17*
%MOMM*%
%LPD*%
G01*
G04 APERTURE LIST*
%ADD10C,0.200000*%
%ADD11C,0.150000*%
%ADD12C,0.254000*%
%ADD13C,0.250000*%
%ADD14C,0.120000*%
%ADD15C,0.100000*%
G04 APERTURE END LIST*
D10*
X153917219Y-131135564D02*
X154917219Y-130897469D01*
X154917219Y-130897469D02*
X154202933Y-130706993D01*
X154202933Y-130706993D02*
X154917219Y-130516517D01*
X154917219Y-130516517D02*
X153917219Y-130278422D01*
X154631504Y-129945088D02*
X154631504Y-129468898D01*
X154917219Y-130040326D02*
X153917219Y-129706993D01*
X153917219Y-129706993D02*
X154917219Y-129373660D01*
X154917219Y-128468898D02*
X154441028Y-128802231D01*
X154917219Y-129040326D02*
X153917219Y-129040326D01*
X153917219Y-129040326D02*
X153917219Y-128659374D01*
X153917219Y-128659374D02*
X153964838Y-128564136D01*
X153964838Y-128564136D02*
X154012457Y-128516517D01*
X154012457Y-128516517D02*
X154107695Y-128468898D01*
X154107695Y-128468898D02*
X154250552Y-128468898D01*
X154250552Y-128468898D02*
X154345790Y-128516517D01*
X154345790Y-128516517D02*
X154393409Y-128564136D01*
X154393409Y-128564136D02*
X154441028Y-128659374D01*
X154441028Y-128659374D02*
X154441028Y-129040326D01*
X154917219Y-128040326D02*
X153917219Y-128040326D01*
X153917219Y-128040326D02*
X154917219Y-127468898D01*
X154917219Y-127468898D02*
X153917219Y-127468898D01*
X154917219Y-126992707D02*
X153917219Y-126992707D01*
X154917219Y-126516517D02*
X153917219Y-126516517D01*
X153917219Y-126516517D02*
X154917219Y-125945089D01*
X154917219Y-125945089D02*
X153917219Y-125945089D01*
X153964838Y-124945089D02*
X153917219Y-125040327D01*
X153917219Y-125040327D02*
X153917219Y-125183184D01*
X153917219Y-125183184D02*
X153964838Y-125326041D01*
X153964838Y-125326041D02*
X154060076Y-125421279D01*
X154060076Y-125421279D02*
X154155314Y-125468898D01*
X154155314Y-125468898D02*
X154345790Y-125516517D01*
X154345790Y-125516517D02*
X154488647Y-125516517D01*
X154488647Y-125516517D02*
X154679123Y-125468898D01*
X154679123Y-125468898D02*
X154774361Y-125421279D01*
X154774361Y-125421279D02*
X154869600Y-125326041D01*
X154869600Y-125326041D02*
X154917219Y-125183184D01*
X154917219Y-125183184D02*
X154917219Y-125087946D01*
X154917219Y-125087946D02*
X154869600Y-124945089D01*
X154869600Y-124945089D02*
X154821980Y-124897470D01*
X154821980Y-124897470D02*
X154488647Y-124897470D01*
X154488647Y-124897470D02*
X154488647Y-125087946D01*
D11*
X127933333Y-121769580D02*
X127885714Y-121817200D01*
X127885714Y-121817200D02*
X127742857Y-121864819D01*
X127742857Y-121864819D02*
X127647619Y-121864819D01*
X127647619Y-121864819D02*
X127504762Y-121817200D01*
X127504762Y-121817200D02*
X127409524Y-121721961D01*
X127409524Y-121721961D02*
X127361905Y-121626723D01*
X127361905Y-121626723D02*
X127314286Y-121436247D01*
X127314286Y-121436247D02*
X127314286Y-121293390D01*
X127314286Y-121293390D02*
X127361905Y-121102914D01*
X127361905Y-121102914D02*
X127409524Y-121007676D01*
X127409524Y-121007676D02*
X127504762Y-120912438D01*
X127504762Y-120912438D02*
X127647619Y-120864819D01*
X127647619Y-120864819D02*
X127742857Y-120864819D01*
X127742857Y-120864819D02*
X127885714Y-120912438D01*
X127885714Y-120912438D02*
X127933333Y-120960057D01*
X128409524Y-121864819D02*
X128600000Y-121864819D01*
X128600000Y-121864819D02*
X128695238Y-121817200D01*
X128695238Y-121817200D02*
X128742857Y-121769580D01*
X128742857Y-121769580D02*
X128838095Y-121626723D01*
X128838095Y-121626723D02*
X128885714Y-121436247D01*
X128885714Y-121436247D02*
X128885714Y-121055295D01*
X128885714Y-121055295D02*
X128838095Y-120960057D01*
X128838095Y-120960057D02*
X128790476Y-120912438D01*
X128790476Y-120912438D02*
X128695238Y-120864819D01*
X128695238Y-120864819D02*
X128504762Y-120864819D01*
X128504762Y-120864819D02*
X128409524Y-120912438D01*
X128409524Y-120912438D02*
X128361905Y-120960057D01*
X128361905Y-120960057D02*
X128314286Y-121055295D01*
X128314286Y-121055295D02*
X128314286Y-121293390D01*
X128314286Y-121293390D02*
X128361905Y-121388628D01*
X128361905Y-121388628D02*
X128409524Y-121436247D01*
X128409524Y-121436247D02*
X128504762Y-121483866D01*
X128504762Y-121483866D02*
X128695238Y-121483866D01*
X128695238Y-121483866D02*
X128790476Y-121436247D01*
X128790476Y-121436247D02*
X128838095Y-121388628D01*
X128838095Y-121388628D02*
X128885714Y-121293390D01*
X140057142Y-121379580D02*
X140009523Y-121427200D01*
X140009523Y-121427200D02*
X139866666Y-121474819D01*
X139866666Y-121474819D02*
X139771428Y-121474819D01*
X139771428Y-121474819D02*
X139628571Y-121427200D01*
X139628571Y-121427200D02*
X139533333Y-121331961D01*
X139533333Y-121331961D02*
X139485714Y-121236723D01*
X139485714Y-121236723D02*
X139438095Y-121046247D01*
X139438095Y-121046247D02*
X139438095Y-120903390D01*
X139438095Y-120903390D02*
X139485714Y-120712914D01*
X139485714Y-120712914D02*
X139533333Y-120617676D01*
X139533333Y-120617676D02*
X139628571Y-120522438D01*
X139628571Y-120522438D02*
X139771428Y-120474819D01*
X139771428Y-120474819D02*
X139866666Y-120474819D01*
X139866666Y-120474819D02*
X140009523Y-120522438D01*
X140009523Y-120522438D02*
X140057142Y-120570057D01*
X141009523Y-121474819D02*
X140438095Y-121474819D01*
X140723809Y-121474819D02*
X140723809Y-120474819D01*
X140723809Y-120474819D02*
X140628571Y-120617676D01*
X140628571Y-120617676D02*
X140533333Y-120712914D01*
X140533333Y-120712914D02*
X140438095Y-120760533D01*
X141914285Y-120474819D02*
X141438095Y-120474819D01*
X141438095Y-120474819D02*
X141390476Y-120951009D01*
X141390476Y-120951009D02*
X141438095Y-120903390D01*
X141438095Y-120903390D02*
X141533333Y-120855771D01*
X141533333Y-120855771D02*
X141771428Y-120855771D01*
X141771428Y-120855771D02*
X141866666Y-120903390D01*
X141866666Y-120903390D02*
X141914285Y-120951009D01*
X141914285Y-120951009D02*
X141961904Y-121046247D01*
X141961904Y-121046247D02*
X141961904Y-121284342D01*
X141961904Y-121284342D02*
X141914285Y-121379580D01*
X141914285Y-121379580D02*
X141866666Y-121427200D01*
X141866666Y-121427200D02*
X141771428Y-121474819D01*
X141771428Y-121474819D02*
X141533333Y-121474819D01*
X141533333Y-121474819D02*
X141438095Y-121427200D01*
X141438095Y-121427200D02*
X141390476Y-121379580D01*
X156393333Y-139554819D02*
X156060000Y-139078628D01*
X155821905Y-139554819D02*
X155821905Y-138554819D01*
X155821905Y-138554819D02*
X156202857Y-138554819D01*
X156202857Y-138554819D02*
X156298095Y-138602438D01*
X156298095Y-138602438D02*
X156345714Y-138650057D01*
X156345714Y-138650057D02*
X156393333Y-138745295D01*
X156393333Y-138745295D02*
X156393333Y-138888152D01*
X156393333Y-138888152D02*
X156345714Y-138983390D01*
X156345714Y-138983390D02*
X156298095Y-139031009D01*
X156298095Y-139031009D02*
X156202857Y-139078628D01*
X156202857Y-139078628D02*
X155821905Y-139078628D01*
X156964762Y-138983390D02*
X156869524Y-138935771D01*
X156869524Y-138935771D02*
X156821905Y-138888152D01*
X156821905Y-138888152D02*
X156774286Y-138792914D01*
X156774286Y-138792914D02*
X156774286Y-138745295D01*
X156774286Y-138745295D02*
X156821905Y-138650057D01*
X156821905Y-138650057D02*
X156869524Y-138602438D01*
X156869524Y-138602438D02*
X156964762Y-138554819D01*
X156964762Y-138554819D02*
X157155238Y-138554819D01*
X157155238Y-138554819D02*
X157250476Y-138602438D01*
X157250476Y-138602438D02*
X157298095Y-138650057D01*
X157298095Y-138650057D02*
X157345714Y-138745295D01*
X157345714Y-138745295D02*
X157345714Y-138792914D01*
X157345714Y-138792914D02*
X157298095Y-138888152D01*
X157298095Y-138888152D02*
X157250476Y-138935771D01*
X157250476Y-138935771D02*
X157155238Y-138983390D01*
X157155238Y-138983390D02*
X156964762Y-138983390D01*
X156964762Y-138983390D02*
X156869524Y-139031009D01*
X156869524Y-139031009D02*
X156821905Y-139078628D01*
X156821905Y-139078628D02*
X156774286Y-139173866D01*
X156774286Y-139173866D02*
X156774286Y-139364342D01*
X156774286Y-139364342D02*
X156821905Y-139459580D01*
X156821905Y-139459580D02*
X156869524Y-139507200D01*
X156869524Y-139507200D02*
X156964762Y-139554819D01*
X156964762Y-139554819D02*
X157155238Y-139554819D01*
X157155238Y-139554819D02*
X157250476Y-139507200D01*
X157250476Y-139507200D02*
X157298095Y-139459580D01*
X157298095Y-139459580D02*
X157345714Y-139364342D01*
X157345714Y-139364342D02*
X157345714Y-139173866D01*
X157345714Y-139173866D02*
X157298095Y-139078628D01*
X157298095Y-139078628D02*
X157250476Y-139031009D01*
X157250476Y-139031009D02*
X157155238Y-138983390D01*
X156846667Y-88137200D02*
X156989524Y-88184819D01*
X156989524Y-88184819D02*
X157227619Y-88184819D01*
X157227619Y-88184819D02*
X157322857Y-88137200D01*
X157322857Y-88137200D02*
X157370476Y-88089580D01*
X157370476Y-88089580D02*
X157418095Y-87994342D01*
X157418095Y-87994342D02*
X157418095Y-87899104D01*
X157418095Y-87899104D02*
X157370476Y-87803866D01*
X157370476Y-87803866D02*
X157322857Y-87756247D01*
X157322857Y-87756247D02*
X157227619Y-87708628D01*
X157227619Y-87708628D02*
X157037143Y-87661009D01*
X157037143Y-87661009D02*
X156941905Y-87613390D01*
X156941905Y-87613390D02*
X156894286Y-87565771D01*
X156894286Y-87565771D02*
X156846667Y-87470533D01*
X156846667Y-87470533D02*
X156846667Y-87375295D01*
X156846667Y-87375295D02*
X156894286Y-87280057D01*
X156894286Y-87280057D02*
X156941905Y-87232438D01*
X156941905Y-87232438D02*
X157037143Y-87184819D01*
X157037143Y-87184819D02*
X157275238Y-87184819D01*
X157275238Y-87184819D02*
X157418095Y-87232438D01*
X157751429Y-87184819D02*
X157989524Y-88184819D01*
X157989524Y-88184819D02*
X158180000Y-87470533D01*
X158180000Y-87470533D02*
X158370476Y-88184819D01*
X158370476Y-88184819D02*
X158608572Y-87184819D01*
X159513333Y-88184819D02*
X158941905Y-88184819D01*
X159227619Y-88184819D02*
X159227619Y-87184819D01*
X159227619Y-87184819D02*
X159132381Y-87327676D01*
X159132381Y-87327676D02*
X159037143Y-87422914D01*
X159037143Y-87422914D02*
X158941905Y-87470533D01*
X158126666Y-136764819D02*
X158126666Y-137479104D01*
X158126666Y-137479104D02*
X158079047Y-137621961D01*
X158079047Y-137621961D02*
X157983809Y-137717200D01*
X157983809Y-137717200D02*
X157840952Y-137764819D01*
X157840952Y-137764819D02*
X157745714Y-137764819D01*
X159079047Y-136764819D02*
X158602857Y-136764819D01*
X158602857Y-136764819D02*
X158555238Y-137241009D01*
X158555238Y-137241009D02*
X158602857Y-137193390D01*
X158602857Y-137193390D02*
X158698095Y-137145771D01*
X158698095Y-137145771D02*
X158936190Y-137145771D01*
X158936190Y-137145771D02*
X159031428Y-137193390D01*
X159031428Y-137193390D02*
X159079047Y-137241009D01*
X159079047Y-137241009D02*
X159126666Y-137336247D01*
X159126666Y-137336247D02*
X159126666Y-137574342D01*
X159126666Y-137574342D02*
X159079047Y-137669580D01*
X159079047Y-137669580D02*
X159031428Y-137717200D01*
X159031428Y-137717200D02*
X158936190Y-137764819D01*
X158936190Y-137764819D02*
X158698095Y-137764819D01*
X158698095Y-137764819D02*
X158602857Y-137717200D01*
X158602857Y-137717200D02*
X158555238Y-137669580D01*
D12*
X150222618Y-132144318D02*
X150222618Y-130874318D01*
X150222618Y-130874318D02*
X150524999Y-130874318D01*
X150524999Y-130874318D02*
X150706428Y-130934794D01*
X150706428Y-130934794D02*
X150827380Y-131055746D01*
X150827380Y-131055746D02*
X150887857Y-131176699D01*
X150887857Y-131176699D02*
X150948333Y-131418603D01*
X150948333Y-131418603D02*
X150948333Y-131600032D01*
X150948333Y-131600032D02*
X150887857Y-131841937D01*
X150887857Y-131841937D02*
X150827380Y-131962889D01*
X150827380Y-131962889D02*
X150706428Y-132083842D01*
X150706428Y-132083842D02*
X150524999Y-132144318D01*
X150524999Y-132144318D02*
X150222618Y-132144318D01*
X152157857Y-132144318D02*
X151432142Y-132144318D01*
X151794999Y-132144318D02*
X151794999Y-130874318D01*
X151794999Y-130874318D02*
X151674047Y-131055746D01*
X151674047Y-131055746D02*
X151553095Y-131176699D01*
X151553095Y-131176699D02*
X151432142Y-131237175D01*
D11*
X131467142Y-125174819D02*
X131133809Y-124698628D01*
X130895714Y-125174819D02*
X130895714Y-124174819D01*
X130895714Y-124174819D02*
X131276666Y-124174819D01*
X131276666Y-124174819D02*
X131371904Y-124222438D01*
X131371904Y-124222438D02*
X131419523Y-124270057D01*
X131419523Y-124270057D02*
X131467142Y-124365295D01*
X131467142Y-124365295D02*
X131467142Y-124508152D01*
X131467142Y-124508152D02*
X131419523Y-124603390D01*
X131419523Y-124603390D02*
X131371904Y-124651009D01*
X131371904Y-124651009D02*
X131276666Y-124698628D01*
X131276666Y-124698628D02*
X130895714Y-124698628D01*
X132419523Y-125174819D02*
X131848095Y-125174819D01*
X132133809Y-125174819D02*
X132133809Y-124174819D01*
X132133809Y-124174819D02*
X132038571Y-124317676D01*
X132038571Y-124317676D02*
X131943333Y-124412914D01*
X131943333Y-124412914D02*
X131848095Y-124460533D01*
X133276666Y-124174819D02*
X133086190Y-124174819D01*
X133086190Y-124174819D02*
X132990952Y-124222438D01*
X132990952Y-124222438D02*
X132943333Y-124270057D01*
X132943333Y-124270057D02*
X132848095Y-124412914D01*
X132848095Y-124412914D02*
X132800476Y-124603390D01*
X132800476Y-124603390D02*
X132800476Y-124984342D01*
X132800476Y-124984342D02*
X132848095Y-125079580D01*
X132848095Y-125079580D02*
X132895714Y-125127200D01*
X132895714Y-125127200D02*
X132990952Y-125174819D01*
X132990952Y-125174819D02*
X133181428Y-125174819D01*
X133181428Y-125174819D02*
X133276666Y-125127200D01*
X133276666Y-125127200D02*
X133324285Y-125079580D01*
X133324285Y-125079580D02*
X133371904Y-124984342D01*
X133371904Y-124984342D02*
X133371904Y-124746247D01*
X133371904Y-124746247D02*
X133324285Y-124651009D01*
X133324285Y-124651009D02*
X133276666Y-124603390D01*
X133276666Y-124603390D02*
X133181428Y-124555771D01*
X133181428Y-124555771D02*
X132990952Y-124555771D01*
X132990952Y-124555771D02*
X132895714Y-124603390D01*
X132895714Y-124603390D02*
X132848095Y-124651009D01*
X132848095Y-124651009D02*
X132800476Y-124746247D01*
X155387142Y-116514819D02*
X155053809Y-116038628D01*
X154815714Y-116514819D02*
X154815714Y-115514819D01*
X154815714Y-115514819D02*
X155196666Y-115514819D01*
X155196666Y-115514819D02*
X155291904Y-115562438D01*
X155291904Y-115562438D02*
X155339523Y-115610057D01*
X155339523Y-115610057D02*
X155387142Y-115705295D01*
X155387142Y-115705295D02*
X155387142Y-115848152D01*
X155387142Y-115848152D02*
X155339523Y-115943390D01*
X155339523Y-115943390D02*
X155291904Y-115991009D01*
X155291904Y-115991009D02*
X155196666Y-116038628D01*
X155196666Y-116038628D02*
X154815714Y-116038628D01*
X155768095Y-115610057D02*
X155815714Y-115562438D01*
X155815714Y-115562438D02*
X155910952Y-115514819D01*
X155910952Y-115514819D02*
X156149047Y-115514819D01*
X156149047Y-115514819D02*
X156244285Y-115562438D01*
X156244285Y-115562438D02*
X156291904Y-115610057D01*
X156291904Y-115610057D02*
X156339523Y-115705295D01*
X156339523Y-115705295D02*
X156339523Y-115800533D01*
X156339523Y-115800533D02*
X156291904Y-115943390D01*
X156291904Y-115943390D02*
X155720476Y-116514819D01*
X155720476Y-116514819D02*
X156339523Y-116514819D01*
X156720476Y-115610057D02*
X156768095Y-115562438D01*
X156768095Y-115562438D02*
X156863333Y-115514819D01*
X156863333Y-115514819D02*
X157101428Y-115514819D01*
X157101428Y-115514819D02*
X157196666Y-115562438D01*
X157196666Y-115562438D02*
X157244285Y-115610057D01*
X157244285Y-115610057D02*
X157291904Y-115705295D01*
X157291904Y-115705295D02*
X157291904Y-115800533D01*
X157291904Y-115800533D02*
X157244285Y-115943390D01*
X157244285Y-115943390D02*
X156672857Y-116514819D01*
X156672857Y-116514819D02*
X157291904Y-116514819D01*
X153346666Y-133504819D02*
X153346666Y-134219104D01*
X153346666Y-134219104D02*
X153299047Y-134361961D01*
X153299047Y-134361961D02*
X153203809Y-134457200D01*
X153203809Y-134457200D02*
X153060952Y-134504819D01*
X153060952Y-134504819D02*
X152965714Y-134504819D01*
X153775238Y-133600057D02*
X153822857Y-133552438D01*
X153822857Y-133552438D02*
X153918095Y-133504819D01*
X153918095Y-133504819D02*
X154156190Y-133504819D01*
X154156190Y-133504819D02*
X154251428Y-133552438D01*
X154251428Y-133552438D02*
X154299047Y-133600057D01*
X154299047Y-133600057D02*
X154346666Y-133695295D01*
X154346666Y-133695295D02*
X154346666Y-133790533D01*
X154346666Y-133790533D02*
X154299047Y-133933390D01*
X154299047Y-133933390D02*
X153727619Y-134504819D01*
X153727619Y-134504819D02*
X154346666Y-134504819D01*
X125176666Y-142234819D02*
X125176666Y-142949104D01*
X125176666Y-142949104D02*
X125129047Y-143091961D01*
X125129047Y-143091961D02*
X125033809Y-143187200D01*
X125033809Y-143187200D02*
X124890952Y-143234819D01*
X124890952Y-143234819D02*
X124795714Y-143234819D01*
X125557619Y-142234819D02*
X126176666Y-142234819D01*
X126176666Y-142234819D02*
X125843333Y-142615771D01*
X125843333Y-142615771D02*
X125986190Y-142615771D01*
X125986190Y-142615771D02*
X126081428Y-142663390D01*
X126081428Y-142663390D02*
X126129047Y-142711009D01*
X126129047Y-142711009D02*
X126176666Y-142806247D01*
X126176666Y-142806247D02*
X126176666Y-143044342D01*
X126176666Y-143044342D02*
X126129047Y-143139580D01*
X126129047Y-143139580D02*
X126081428Y-143187200D01*
X126081428Y-143187200D02*
X125986190Y-143234819D01*
X125986190Y-143234819D02*
X125700476Y-143234819D01*
X125700476Y-143234819D02*
X125605238Y-143187200D01*
X125605238Y-143187200D02*
X125557619Y-143139580D01*
X127977142Y-104054819D02*
X127643809Y-103578628D01*
X127405714Y-104054819D02*
X127405714Y-103054819D01*
X127405714Y-103054819D02*
X127786666Y-103054819D01*
X127786666Y-103054819D02*
X127881904Y-103102438D01*
X127881904Y-103102438D02*
X127929523Y-103150057D01*
X127929523Y-103150057D02*
X127977142Y-103245295D01*
X127977142Y-103245295D02*
X127977142Y-103388152D01*
X127977142Y-103388152D02*
X127929523Y-103483390D01*
X127929523Y-103483390D02*
X127881904Y-103531009D01*
X127881904Y-103531009D02*
X127786666Y-103578628D01*
X127786666Y-103578628D02*
X127405714Y-103578628D01*
X128929523Y-104054819D02*
X128358095Y-104054819D01*
X128643809Y-104054819D02*
X128643809Y-103054819D01*
X128643809Y-103054819D02*
X128548571Y-103197676D01*
X128548571Y-103197676D02*
X128453333Y-103292914D01*
X128453333Y-103292914D02*
X128358095Y-103340533D01*
X129262857Y-103054819D02*
X129929523Y-103054819D01*
X129929523Y-103054819D02*
X129500952Y-104054819D01*
X158197142Y-101169580D02*
X158149523Y-101217200D01*
X158149523Y-101217200D02*
X158006666Y-101264819D01*
X158006666Y-101264819D02*
X157911428Y-101264819D01*
X157911428Y-101264819D02*
X157768571Y-101217200D01*
X157768571Y-101217200D02*
X157673333Y-101121961D01*
X157673333Y-101121961D02*
X157625714Y-101026723D01*
X157625714Y-101026723D02*
X157578095Y-100836247D01*
X157578095Y-100836247D02*
X157578095Y-100693390D01*
X157578095Y-100693390D02*
X157625714Y-100502914D01*
X157625714Y-100502914D02*
X157673333Y-100407676D01*
X157673333Y-100407676D02*
X157768571Y-100312438D01*
X157768571Y-100312438D02*
X157911428Y-100264819D01*
X157911428Y-100264819D02*
X158006666Y-100264819D01*
X158006666Y-100264819D02*
X158149523Y-100312438D01*
X158149523Y-100312438D02*
X158197142Y-100360057D01*
X159149523Y-101264819D02*
X158578095Y-101264819D01*
X158863809Y-101264819D02*
X158863809Y-100264819D01*
X158863809Y-100264819D02*
X158768571Y-100407676D01*
X158768571Y-100407676D02*
X158673333Y-100502914D01*
X158673333Y-100502914D02*
X158578095Y-100550533D01*
X159625714Y-101264819D02*
X159816190Y-101264819D01*
X159816190Y-101264819D02*
X159911428Y-101217200D01*
X159911428Y-101217200D02*
X159959047Y-101169580D01*
X159959047Y-101169580D02*
X160054285Y-101026723D01*
X160054285Y-101026723D02*
X160101904Y-100836247D01*
X160101904Y-100836247D02*
X160101904Y-100455295D01*
X160101904Y-100455295D02*
X160054285Y-100360057D01*
X160054285Y-100360057D02*
X160006666Y-100312438D01*
X160006666Y-100312438D02*
X159911428Y-100264819D01*
X159911428Y-100264819D02*
X159720952Y-100264819D01*
X159720952Y-100264819D02*
X159625714Y-100312438D01*
X159625714Y-100312438D02*
X159578095Y-100360057D01*
X159578095Y-100360057D02*
X159530476Y-100455295D01*
X159530476Y-100455295D02*
X159530476Y-100693390D01*
X159530476Y-100693390D02*
X159578095Y-100788628D01*
X159578095Y-100788628D02*
X159625714Y-100836247D01*
X159625714Y-100836247D02*
X159720952Y-100883866D01*
X159720952Y-100883866D02*
X159911428Y-100883866D01*
X159911428Y-100883866D02*
X160006666Y-100836247D01*
X160006666Y-100836247D02*
X160054285Y-100788628D01*
X160054285Y-100788628D02*
X160101904Y-100693390D01*
X128447142Y-123359580D02*
X128399523Y-123407200D01*
X128399523Y-123407200D02*
X128256666Y-123454819D01*
X128256666Y-123454819D02*
X128161428Y-123454819D01*
X128161428Y-123454819D02*
X128018571Y-123407200D01*
X128018571Y-123407200D02*
X127923333Y-123311961D01*
X127923333Y-123311961D02*
X127875714Y-123216723D01*
X127875714Y-123216723D02*
X127828095Y-123026247D01*
X127828095Y-123026247D02*
X127828095Y-122883390D01*
X127828095Y-122883390D02*
X127875714Y-122692914D01*
X127875714Y-122692914D02*
X127923333Y-122597676D01*
X127923333Y-122597676D02*
X128018571Y-122502438D01*
X128018571Y-122502438D02*
X128161428Y-122454819D01*
X128161428Y-122454819D02*
X128256666Y-122454819D01*
X128256666Y-122454819D02*
X128399523Y-122502438D01*
X128399523Y-122502438D02*
X128447142Y-122550057D01*
X129399523Y-123454819D02*
X128828095Y-123454819D01*
X129113809Y-123454819D02*
X129113809Y-122454819D01*
X129113809Y-122454819D02*
X129018571Y-122597676D01*
X129018571Y-122597676D02*
X128923333Y-122692914D01*
X128923333Y-122692914D02*
X128828095Y-122740533D01*
X130018571Y-122454819D02*
X130113809Y-122454819D01*
X130113809Y-122454819D02*
X130209047Y-122502438D01*
X130209047Y-122502438D02*
X130256666Y-122550057D01*
X130256666Y-122550057D02*
X130304285Y-122645295D01*
X130304285Y-122645295D02*
X130351904Y-122835771D01*
X130351904Y-122835771D02*
X130351904Y-123073866D01*
X130351904Y-123073866D02*
X130304285Y-123264342D01*
X130304285Y-123264342D02*
X130256666Y-123359580D01*
X130256666Y-123359580D02*
X130209047Y-123407200D01*
X130209047Y-123407200D02*
X130113809Y-123454819D01*
X130113809Y-123454819D02*
X130018571Y-123454819D01*
X130018571Y-123454819D02*
X129923333Y-123407200D01*
X129923333Y-123407200D02*
X129875714Y-123359580D01*
X129875714Y-123359580D02*
X129828095Y-123264342D01*
X129828095Y-123264342D02*
X129780476Y-123073866D01*
X129780476Y-123073866D02*
X129780476Y-122835771D01*
X129780476Y-122835771D02*
X129828095Y-122645295D01*
X129828095Y-122645295D02*
X129875714Y-122550057D01*
X129875714Y-122550057D02*
X129923333Y-122502438D01*
X129923333Y-122502438D02*
X130018571Y-122454819D01*
X135903333Y-98934819D02*
X135570000Y-98458628D01*
X135331905Y-98934819D02*
X135331905Y-97934819D01*
X135331905Y-97934819D02*
X135712857Y-97934819D01*
X135712857Y-97934819D02*
X135808095Y-97982438D01*
X135808095Y-97982438D02*
X135855714Y-98030057D01*
X135855714Y-98030057D02*
X135903333Y-98125295D01*
X135903333Y-98125295D02*
X135903333Y-98268152D01*
X135903333Y-98268152D02*
X135855714Y-98363390D01*
X135855714Y-98363390D02*
X135808095Y-98411009D01*
X135808095Y-98411009D02*
X135712857Y-98458628D01*
X135712857Y-98458628D02*
X135331905Y-98458628D01*
X136284286Y-98030057D02*
X136331905Y-97982438D01*
X136331905Y-97982438D02*
X136427143Y-97934819D01*
X136427143Y-97934819D02*
X136665238Y-97934819D01*
X136665238Y-97934819D02*
X136760476Y-97982438D01*
X136760476Y-97982438D02*
X136808095Y-98030057D01*
X136808095Y-98030057D02*
X136855714Y-98125295D01*
X136855714Y-98125295D02*
X136855714Y-98220533D01*
X136855714Y-98220533D02*
X136808095Y-98363390D01*
X136808095Y-98363390D02*
X136236667Y-98934819D01*
X136236667Y-98934819D02*
X136855714Y-98934819D01*
D12*
X147458237Y-115194318D02*
X147458237Y-113924318D01*
X148788714Y-115073365D02*
X148728238Y-115133842D01*
X148728238Y-115133842D02*
X148546809Y-115194318D01*
X148546809Y-115194318D02*
X148425857Y-115194318D01*
X148425857Y-115194318D02*
X148244428Y-115133842D01*
X148244428Y-115133842D02*
X148123476Y-115012889D01*
X148123476Y-115012889D02*
X148062999Y-114891937D01*
X148062999Y-114891937D02*
X148002523Y-114650032D01*
X148002523Y-114650032D02*
X148002523Y-114468603D01*
X148002523Y-114468603D02*
X148062999Y-114226699D01*
X148062999Y-114226699D02*
X148123476Y-114105746D01*
X148123476Y-114105746D02*
X148244428Y-113984794D01*
X148244428Y-113984794D02*
X148425857Y-113924318D01*
X148425857Y-113924318D02*
X148546809Y-113924318D01*
X148546809Y-113924318D02*
X148728238Y-113984794D01*
X148728238Y-113984794D02*
X148788714Y-114045270D01*
X149514428Y-114468603D02*
X149393476Y-114408127D01*
X149393476Y-114408127D02*
X149332999Y-114347651D01*
X149332999Y-114347651D02*
X149272523Y-114226699D01*
X149272523Y-114226699D02*
X149272523Y-114166222D01*
X149272523Y-114166222D02*
X149332999Y-114045270D01*
X149332999Y-114045270D02*
X149393476Y-113984794D01*
X149393476Y-113984794D02*
X149514428Y-113924318D01*
X149514428Y-113924318D02*
X149756333Y-113924318D01*
X149756333Y-113924318D02*
X149877285Y-113984794D01*
X149877285Y-113984794D02*
X149937761Y-114045270D01*
X149937761Y-114045270D02*
X149998238Y-114166222D01*
X149998238Y-114166222D02*
X149998238Y-114226699D01*
X149998238Y-114226699D02*
X149937761Y-114347651D01*
X149937761Y-114347651D02*
X149877285Y-114408127D01*
X149877285Y-114408127D02*
X149756333Y-114468603D01*
X149756333Y-114468603D02*
X149514428Y-114468603D01*
X149514428Y-114468603D02*
X149393476Y-114529080D01*
X149393476Y-114529080D02*
X149332999Y-114589556D01*
X149332999Y-114589556D02*
X149272523Y-114710508D01*
X149272523Y-114710508D02*
X149272523Y-114952413D01*
X149272523Y-114952413D02*
X149332999Y-115073365D01*
X149332999Y-115073365D02*
X149393476Y-115133842D01*
X149393476Y-115133842D02*
X149514428Y-115194318D01*
X149514428Y-115194318D02*
X149756333Y-115194318D01*
X149756333Y-115194318D02*
X149877285Y-115133842D01*
X149877285Y-115133842D02*
X149937761Y-115073365D01*
X149937761Y-115073365D02*
X149998238Y-114952413D01*
X149998238Y-114952413D02*
X149998238Y-114710508D01*
X149998238Y-114710508D02*
X149937761Y-114589556D01*
X149937761Y-114589556D02*
X149877285Y-114529080D01*
X149877285Y-114529080D02*
X149756333Y-114468603D01*
D11*
X151357142Y-122039580D02*
X151309523Y-122087200D01*
X151309523Y-122087200D02*
X151166666Y-122134819D01*
X151166666Y-122134819D02*
X151071428Y-122134819D01*
X151071428Y-122134819D02*
X150928571Y-122087200D01*
X150928571Y-122087200D02*
X150833333Y-121991961D01*
X150833333Y-121991961D02*
X150785714Y-121896723D01*
X150785714Y-121896723D02*
X150738095Y-121706247D01*
X150738095Y-121706247D02*
X150738095Y-121563390D01*
X150738095Y-121563390D02*
X150785714Y-121372914D01*
X150785714Y-121372914D02*
X150833333Y-121277676D01*
X150833333Y-121277676D02*
X150928571Y-121182438D01*
X150928571Y-121182438D02*
X151071428Y-121134819D01*
X151071428Y-121134819D02*
X151166666Y-121134819D01*
X151166666Y-121134819D02*
X151309523Y-121182438D01*
X151309523Y-121182438D02*
X151357142Y-121230057D01*
X152309523Y-122134819D02*
X151738095Y-122134819D01*
X152023809Y-122134819D02*
X152023809Y-121134819D01*
X152023809Y-121134819D02*
X151928571Y-121277676D01*
X151928571Y-121277676D02*
X151833333Y-121372914D01*
X151833333Y-121372914D02*
X151738095Y-121420533D01*
X152690476Y-121230057D02*
X152738095Y-121182438D01*
X152738095Y-121182438D02*
X152833333Y-121134819D01*
X152833333Y-121134819D02*
X153071428Y-121134819D01*
X153071428Y-121134819D02*
X153166666Y-121182438D01*
X153166666Y-121182438D02*
X153214285Y-121230057D01*
X153214285Y-121230057D02*
X153261904Y-121325295D01*
X153261904Y-121325295D02*
X153261904Y-121420533D01*
X153261904Y-121420533D02*
X153214285Y-121563390D01*
X153214285Y-121563390D02*
X152642857Y-122134819D01*
X152642857Y-122134819D02*
X153261904Y-122134819D01*
D12*
X124049047Y-97995270D02*
X123928095Y-97934794D01*
X123928095Y-97934794D02*
X123807142Y-97813842D01*
X123807142Y-97813842D02*
X123625714Y-97632413D01*
X123625714Y-97632413D02*
X123504761Y-97571937D01*
X123504761Y-97571937D02*
X123383809Y-97571937D01*
X123444285Y-97874318D02*
X123323333Y-97813842D01*
X123323333Y-97813842D02*
X123202380Y-97692889D01*
X123202380Y-97692889D02*
X123141904Y-97450984D01*
X123141904Y-97450984D02*
X123141904Y-97027651D01*
X123141904Y-97027651D02*
X123202380Y-96785746D01*
X123202380Y-96785746D02*
X123323333Y-96664794D01*
X123323333Y-96664794D02*
X123444285Y-96604318D01*
X123444285Y-96604318D02*
X123686190Y-96604318D01*
X123686190Y-96604318D02*
X123807142Y-96664794D01*
X123807142Y-96664794D02*
X123928095Y-96785746D01*
X123928095Y-96785746D02*
X123988571Y-97027651D01*
X123988571Y-97027651D02*
X123988571Y-97450984D01*
X123988571Y-97450984D02*
X123928095Y-97692889D01*
X123928095Y-97692889D02*
X123807142Y-97813842D01*
X123807142Y-97813842D02*
X123686190Y-97874318D01*
X123686190Y-97874318D02*
X123444285Y-97874318D01*
X125198095Y-97874318D02*
X124472380Y-97874318D01*
X124835237Y-97874318D02*
X124835237Y-96604318D01*
X124835237Y-96604318D02*
X124714285Y-96785746D01*
X124714285Y-96785746D02*
X124593333Y-96906699D01*
X124593333Y-96906699D02*
X124472380Y-96967175D01*
D11*
X140903333Y-87934819D02*
X140570000Y-87458628D01*
X140331905Y-87934819D02*
X140331905Y-86934819D01*
X140331905Y-86934819D02*
X140712857Y-86934819D01*
X140712857Y-86934819D02*
X140808095Y-86982438D01*
X140808095Y-86982438D02*
X140855714Y-87030057D01*
X140855714Y-87030057D02*
X140903333Y-87125295D01*
X140903333Y-87125295D02*
X140903333Y-87268152D01*
X140903333Y-87268152D02*
X140855714Y-87363390D01*
X140855714Y-87363390D02*
X140808095Y-87411009D01*
X140808095Y-87411009D02*
X140712857Y-87458628D01*
X140712857Y-87458628D02*
X140331905Y-87458628D01*
X141808095Y-86934819D02*
X141331905Y-86934819D01*
X141331905Y-86934819D02*
X141284286Y-87411009D01*
X141284286Y-87411009D02*
X141331905Y-87363390D01*
X141331905Y-87363390D02*
X141427143Y-87315771D01*
X141427143Y-87315771D02*
X141665238Y-87315771D01*
X141665238Y-87315771D02*
X141760476Y-87363390D01*
X141760476Y-87363390D02*
X141808095Y-87411009D01*
X141808095Y-87411009D02*
X141855714Y-87506247D01*
X141855714Y-87506247D02*
X141855714Y-87744342D01*
X141855714Y-87744342D02*
X141808095Y-87839580D01*
X141808095Y-87839580D02*
X141760476Y-87887200D01*
X141760476Y-87887200D02*
X141665238Y-87934819D01*
X141665238Y-87934819D02*
X141427143Y-87934819D01*
X141427143Y-87934819D02*
X141331905Y-87887200D01*
X141331905Y-87887200D02*
X141284286Y-87839580D01*
X141809580Y-110277857D02*
X141857200Y-110325476D01*
X141857200Y-110325476D02*
X141904819Y-110468333D01*
X141904819Y-110468333D02*
X141904819Y-110563571D01*
X141904819Y-110563571D02*
X141857200Y-110706428D01*
X141857200Y-110706428D02*
X141761961Y-110801666D01*
X141761961Y-110801666D02*
X141666723Y-110849285D01*
X141666723Y-110849285D02*
X141476247Y-110896904D01*
X141476247Y-110896904D02*
X141333390Y-110896904D01*
X141333390Y-110896904D02*
X141142914Y-110849285D01*
X141142914Y-110849285D02*
X141047676Y-110801666D01*
X141047676Y-110801666D02*
X140952438Y-110706428D01*
X140952438Y-110706428D02*
X140904819Y-110563571D01*
X140904819Y-110563571D02*
X140904819Y-110468333D01*
X140904819Y-110468333D02*
X140952438Y-110325476D01*
X140952438Y-110325476D02*
X141000057Y-110277857D01*
X141000057Y-109896904D02*
X140952438Y-109849285D01*
X140952438Y-109849285D02*
X140904819Y-109754047D01*
X140904819Y-109754047D02*
X140904819Y-109515952D01*
X140904819Y-109515952D02*
X140952438Y-109420714D01*
X140952438Y-109420714D02*
X141000057Y-109373095D01*
X141000057Y-109373095D02*
X141095295Y-109325476D01*
X141095295Y-109325476D02*
X141190533Y-109325476D01*
X141190533Y-109325476D02*
X141333390Y-109373095D01*
X141333390Y-109373095D02*
X141904819Y-109944523D01*
X141904819Y-109944523D02*
X141904819Y-109325476D01*
X141238152Y-108468333D02*
X141904819Y-108468333D01*
X140857200Y-108706428D02*
X141571485Y-108944523D01*
X141571485Y-108944523D02*
X141571485Y-108325476D01*
X131363333Y-89364819D02*
X131030000Y-88888628D01*
X130791905Y-89364819D02*
X130791905Y-88364819D01*
X130791905Y-88364819D02*
X131172857Y-88364819D01*
X131172857Y-88364819D02*
X131268095Y-88412438D01*
X131268095Y-88412438D02*
X131315714Y-88460057D01*
X131315714Y-88460057D02*
X131363333Y-88555295D01*
X131363333Y-88555295D02*
X131363333Y-88698152D01*
X131363333Y-88698152D02*
X131315714Y-88793390D01*
X131315714Y-88793390D02*
X131268095Y-88841009D01*
X131268095Y-88841009D02*
X131172857Y-88888628D01*
X131172857Y-88888628D02*
X130791905Y-88888628D01*
X132220476Y-88698152D02*
X132220476Y-89364819D01*
X131982381Y-88317200D02*
X131744286Y-89031485D01*
X131744286Y-89031485D02*
X132363333Y-89031485D01*
X124683333Y-105034819D02*
X124350000Y-104558628D01*
X124111905Y-105034819D02*
X124111905Y-104034819D01*
X124111905Y-104034819D02*
X124492857Y-104034819D01*
X124492857Y-104034819D02*
X124588095Y-104082438D01*
X124588095Y-104082438D02*
X124635714Y-104130057D01*
X124635714Y-104130057D02*
X124683333Y-104225295D01*
X124683333Y-104225295D02*
X124683333Y-104368152D01*
X124683333Y-104368152D02*
X124635714Y-104463390D01*
X124635714Y-104463390D02*
X124588095Y-104511009D01*
X124588095Y-104511009D02*
X124492857Y-104558628D01*
X124492857Y-104558628D02*
X124111905Y-104558628D01*
X125540476Y-104034819D02*
X125350000Y-104034819D01*
X125350000Y-104034819D02*
X125254762Y-104082438D01*
X125254762Y-104082438D02*
X125207143Y-104130057D01*
X125207143Y-104130057D02*
X125111905Y-104272914D01*
X125111905Y-104272914D02*
X125064286Y-104463390D01*
X125064286Y-104463390D02*
X125064286Y-104844342D01*
X125064286Y-104844342D02*
X125111905Y-104939580D01*
X125111905Y-104939580D02*
X125159524Y-104987200D01*
X125159524Y-104987200D02*
X125254762Y-105034819D01*
X125254762Y-105034819D02*
X125445238Y-105034819D01*
X125445238Y-105034819D02*
X125540476Y-104987200D01*
X125540476Y-104987200D02*
X125588095Y-104939580D01*
X125588095Y-104939580D02*
X125635714Y-104844342D01*
X125635714Y-104844342D02*
X125635714Y-104606247D01*
X125635714Y-104606247D02*
X125588095Y-104511009D01*
X125588095Y-104511009D02*
X125540476Y-104463390D01*
X125540476Y-104463390D02*
X125445238Y-104415771D01*
X125445238Y-104415771D02*
X125254762Y-104415771D01*
X125254762Y-104415771D02*
X125159524Y-104463390D01*
X125159524Y-104463390D02*
X125111905Y-104511009D01*
X125111905Y-104511009D02*
X125064286Y-104606247D01*
X139829580Y-119562857D02*
X139877200Y-119610476D01*
X139877200Y-119610476D02*
X139924819Y-119753333D01*
X139924819Y-119753333D02*
X139924819Y-119848571D01*
X139924819Y-119848571D02*
X139877200Y-119991428D01*
X139877200Y-119991428D02*
X139781961Y-120086666D01*
X139781961Y-120086666D02*
X139686723Y-120134285D01*
X139686723Y-120134285D02*
X139496247Y-120181904D01*
X139496247Y-120181904D02*
X139353390Y-120181904D01*
X139353390Y-120181904D02*
X139162914Y-120134285D01*
X139162914Y-120134285D02*
X139067676Y-120086666D01*
X139067676Y-120086666D02*
X138972438Y-119991428D01*
X138972438Y-119991428D02*
X138924819Y-119848571D01*
X138924819Y-119848571D02*
X138924819Y-119753333D01*
X138924819Y-119753333D02*
X138972438Y-119610476D01*
X138972438Y-119610476D02*
X139020057Y-119562857D01*
X139924819Y-118610476D02*
X139924819Y-119181904D01*
X139924819Y-118896190D02*
X138924819Y-118896190D01*
X138924819Y-118896190D02*
X139067676Y-118991428D01*
X139067676Y-118991428D02*
X139162914Y-119086666D01*
X139162914Y-119086666D02*
X139210533Y-119181904D01*
X138924819Y-118277142D02*
X138924819Y-117610476D01*
X138924819Y-117610476D02*
X139924819Y-118039047D01*
X154089580Y-107012857D02*
X154137200Y-107060476D01*
X154137200Y-107060476D02*
X154184819Y-107203333D01*
X154184819Y-107203333D02*
X154184819Y-107298571D01*
X154184819Y-107298571D02*
X154137200Y-107441428D01*
X154137200Y-107441428D02*
X154041961Y-107536666D01*
X154041961Y-107536666D02*
X153946723Y-107584285D01*
X153946723Y-107584285D02*
X153756247Y-107631904D01*
X153756247Y-107631904D02*
X153613390Y-107631904D01*
X153613390Y-107631904D02*
X153422914Y-107584285D01*
X153422914Y-107584285D02*
X153327676Y-107536666D01*
X153327676Y-107536666D02*
X153232438Y-107441428D01*
X153232438Y-107441428D02*
X153184819Y-107298571D01*
X153184819Y-107298571D02*
X153184819Y-107203333D01*
X153184819Y-107203333D02*
X153232438Y-107060476D01*
X153232438Y-107060476D02*
X153280057Y-107012857D01*
X153280057Y-106631904D02*
X153232438Y-106584285D01*
X153232438Y-106584285D02*
X153184819Y-106489047D01*
X153184819Y-106489047D02*
X153184819Y-106250952D01*
X153184819Y-106250952D02*
X153232438Y-106155714D01*
X153232438Y-106155714D02*
X153280057Y-106108095D01*
X153280057Y-106108095D02*
X153375295Y-106060476D01*
X153375295Y-106060476D02*
X153470533Y-106060476D01*
X153470533Y-106060476D02*
X153613390Y-106108095D01*
X153613390Y-106108095D02*
X154184819Y-106679523D01*
X154184819Y-106679523D02*
X154184819Y-106060476D01*
X153280057Y-105679523D02*
X153232438Y-105631904D01*
X153232438Y-105631904D02*
X153184819Y-105536666D01*
X153184819Y-105536666D02*
X153184819Y-105298571D01*
X153184819Y-105298571D02*
X153232438Y-105203333D01*
X153232438Y-105203333D02*
X153280057Y-105155714D01*
X153280057Y-105155714D02*
X153375295Y-105108095D01*
X153375295Y-105108095D02*
X153470533Y-105108095D01*
X153470533Y-105108095D02*
X153613390Y-105155714D01*
X153613390Y-105155714D02*
X154184819Y-105727142D01*
X154184819Y-105727142D02*
X154184819Y-105108095D01*
D12*
X148425238Y-104299556D02*
X148425238Y-104904318D01*
X148001905Y-103634318D02*
X148425238Y-104299556D01*
X148425238Y-104299556D02*
X148848572Y-103634318D01*
X149211428Y-103755270D02*
X149271904Y-103694794D01*
X149271904Y-103694794D02*
X149392857Y-103634318D01*
X149392857Y-103634318D02*
X149695238Y-103634318D01*
X149695238Y-103634318D02*
X149816190Y-103694794D01*
X149816190Y-103694794D02*
X149876666Y-103755270D01*
X149876666Y-103755270D02*
X149937143Y-103876222D01*
X149937143Y-103876222D02*
X149937143Y-103997175D01*
X149937143Y-103997175D02*
X149876666Y-104178603D01*
X149876666Y-104178603D02*
X149150952Y-104904318D01*
X149150952Y-104904318D02*
X149937143Y-104904318D01*
X128664318Y-114108332D02*
X129571461Y-114108332D01*
X129571461Y-114108332D02*
X129752889Y-114168809D01*
X129752889Y-114168809D02*
X129873842Y-114289761D01*
X129873842Y-114289761D02*
X129934318Y-114471190D01*
X129934318Y-114471190D02*
X129934318Y-114592142D01*
X129087651Y-112959285D02*
X129934318Y-112959285D01*
X128603842Y-113261666D02*
X129510984Y-113564047D01*
X129510984Y-113564047D02*
X129510984Y-112777856D01*
D11*
X136799580Y-101546666D02*
X136847200Y-101594285D01*
X136847200Y-101594285D02*
X136894819Y-101737142D01*
X136894819Y-101737142D02*
X136894819Y-101832380D01*
X136894819Y-101832380D02*
X136847200Y-101975237D01*
X136847200Y-101975237D02*
X136751961Y-102070475D01*
X136751961Y-102070475D02*
X136656723Y-102118094D01*
X136656723Y-102118094D02*
X136466247Y-102165713D01*
X136466247Y-102165713D02*
X136323390Y-102165713D01*
X136323390Y-102165713D02*
X136132914Y-102118094D01*
X136132914Y-102118094D02*
X136037676Y-102070475D01*
X136037676Y-102070475D02*
X135942438Y-101975237D01*
X135942438Y-101975237D02*
X135894819Y-101832380D01*
X135894819Y-101832380D02*
X135894819Y-101737142D01*
X135894819Y-101737142D02*
X135942438Y-101594285D01*
X135942438Y-101594285D02*
X135990057Y-101546666D01*
X135990057Y-101165713D02*
X135942438Y-101118094D01*
X135942438Y-101118094D02*
X135894819Y-101022856D01*
X135894819Y-101022856D02*
X135894819Y-100784761D01*
X135894819Y-100784761D02*
X135942438Y-100689523D01*
X135942438Y-100689523D02*
X135990057Y-100641904D01*
X135990057Y-100641904D02*
X136085295Y-100594285D01*
X136085295Y-100594285D02*
X136180533Y-100594285D01*
X136180533Y-100594285D02*
X136323390Y-100641904D01*
X136323390Y-100641904D02*
X136894819Y-101213332D01*
X136894819Y-101213332D02*
X136894819Y-100594285D01*
X133303333Y-101829580D02*
X133255714Y-101877200D01*
X133255714Y-101877200D02*
X133112857Y-101924819D01*
X133112857Y-101924819D02*
X133017619Y-101924819D01*
X133017619Y-101924819D02*
X132874762Y-101877200D01*
X132874762Y-101877200D02*
X132779524Y-101781961D01*
X132779524Y-101781961D02*
X132731905Y-101686723D01*
X132731905Y-101686723D02*
X132684286Y-101496247D01*
X132684286Y-101496247D02*
X132684286Y-101353390D01*
X132684286Y-101353390D02*
X132731905Y-101162914D01*
X132731905Y-101162914D02*
X132779524Y-101067676D01*
X132779524Y-101067676D02*
X132874762Y-100972438D01*
X132874762Y-100972438D02*
X133017619Y-100924819D01*
X133017619Y-100924819D02*
X133112857Y-100924819D01*
X133112857Y-100924819D02*
X133255714Y-100972438D01*
X133255714Y-100972438D02*
X133303333Y-101020057D01*
X134255714Y-101924819D02*
X133684286Y-101924819D01*
X133970000Y-101924819D02*
X133970000Y-100924819D01*
X133970000Y-100924819D02*
X133874762Y-101067676D01*
X133874762Y-101067676D02*
X133779524Y-101162914D01*
X133779524Y-101162914D02*
X133684286Y-101210533D01*
X143037142Y-104424819D02*
X142703809Y-103948628D01*
X142465714Y-104424819D02*
X142465714Y-103424819D01*
X142465714Y-103424819D02*
X142846666Y-103424819D01*
X142846666Y-103424819D02*
X142941904Y-103472438D01*
X142941904Y-103472438D02*
X142989523Y-103520057D01*
X142989523Y-103520057D02*
X143037142Y-103615295D01*
X143037142Y-103615295D02*
X143037142Y-103758152D01*
X143037142Y-103758152D02*
X142989523Y-103853390D01*
X142989523Y-103853390D02*
X142941904Y-103901009D01*
X142941904Y-103901009D02*
X142846666Y-103948628D01*
X142846666Y-103948628D02*
X142465714Y-103948628D01*
X143418095Y-103520057D02*
X143465714Y-103472438D01*
X143465714Y-103472438D02*
X143560952Y-103424819D01*
X143560952Y-103424819D02*
X143799047Y-103424819D01*
X143799047Y-103424819D02*
X143894285Y-103472438D01*
X143894285Y-103472438D02*
X143941904Y-103520057D01*
X143941904Y-103520057D02*
X143989523Y-103615295D01*
X143989523Y-103615295D02*
X143989523Y-103710533D01*
X143989523Y-103710533D02*
X143941904Y-103853390D01*
X143941904Y-103853390D02*
X143370476Y-104424819D01*
X143370476Y-104424819D02*
X143989523Y-104424819D01*
X144608571Y-103424819D02*
X144703809Y-103424819D01*
X144703809Y-103424819D02*
X144799047Y-103472438D01*
X144799047Y-103472438D02*
X144846666Y-103520057D01*
X144846666Y-103520057D02*
X144894285Y-103615295D01*
X144894285Y-103615295D02*
X144941904Y-103805771D01*
X144941904Y-103805771D02*
X144941904Y-104043866D01*
X144941904Y-104043866D02*
X144894285Y-104234342D01*
X144894285Y-104234342D02*
X144846666Y-104329580D01*
X144846666Y-104329580D02*
X144799047Y-104377200D01*
X144799047Y-104377200D02*
X144703809Y-104424819D01*
X144703809Y-104424819D02*
X144608571Y-104424819D01*
X144608571Y-104424819D02*
X144513333Y-104377200D01*
X144513333Y-104377200D02*
X144465714Y-104329580D01*
X144465714Y-104329580D02*
X144418095Y-104234342D01*
X144418095Y-104234342D02*
X144370476Y-104043866D01*
X144370476Y-104043866D02*
X144370476Y-103805771D01*
X144370476Y-103805771D02*
X144418095Y-103615295D01*
X144418095Y-103615295D02*
X144465714Y-103520057D01*
X144465714Y-103520057D02*
X144513333Y-103472438D01*
X144513333Y-103472438D02*
X144608571Y-103424819D01*
X145197142Y-122974819D02*
X144863809Y-122498628D01*
X144625714Y-122974819D02*
X144625714Y-121974819D01*
X144625714Y-121974819D02*
X145006666Y-121974819D01*
X145006666Y-121974819D02*
X145101904Y-122022438D01*
X145101904Y-122022438D02*
X145149523Y-122070057D01*
X145149523Y-122070057D02*
X145197142Y-122165295D01*
X145197142Y-122165295D02*
X145197142Y-122308152D01*
X145197142Y-122308152D02*
X145149523Y-122403390D01*
X145149523Y-122403390D02*
X145101904Y-122451009D01*
X145101904Y-122451009D02*
X145006666Y-122498628D01*
X145006666Y-122498628D02*
X144625714Y-122498628D01*
X146149523Y-122974819D02*
X145578095Y-122974819D01*
X145863809Y-122974819D02*
X145863809Y-121974819D01*
X145863809Y-121974819D02*
X145768571Y-122117676D01*
X145768571Y-122117676D02*
X145673333Y-122212914D01*
X145673333Y-122212914D02*
X145578095Y-122260533D01*
X146768571Y-121974819D02*
X146863809Y-121974819D01*
X146863809Y-121974819D02*
X146959047Y-122022438D01*
X146959047Y-122022438D02*
X147006666Y-122070057D01*
X147006666Y-122070057D02*
X147054285Y-122165295D01*
X147054285Y-122165295D02*
X147101904Y-122355771D01*
X147101904Y-122355771D02*
X147101904Y-122593866D01*
X147101904Y-122593866D02*
X147054285Y-122784342D01*
X147054285Y-122784342D02*
X147006666Y-122879580D01*
X147006666Y-122879580D02*
X146959047Y-122927200D01*
X146959047Y-122927200D02*
X146863809Y-122974819D01*
X146863809Y-122974819D02*
X146768571Y-122974819D01*
X146768571Y-122974819D02*
X146673333Y-122927200D01*
X146673333Y-122927200D02*
X146625714Y-122879580D01*
X146625714Y-122879580D02*
X146578095Y-122784342D01*
X146578095Y-122784342D02*
X146530476Y-122593866D01*
X146530476Y-122593866D02*
X146530476Y-122355771D01*
X146530476Y-122355771D02*
X146578095Y-122165295D01*
X146578095Y-122165295D02*
X146625714Y-122070057D01*
X146625714Y-122070057D02*
X146673333Y-122022438D01*
X146673333Y-122022438D02*
X146768571Y-121974819D01*
X140947142Y-98309580D02*
X140899523Y-98357200D01*
X140899523Y-98357200D02*
X140756666Y-98404819D01*
X140756666Y-98404819D02*
X140661428Y-98404819D01*
X140661428Y-98404819D02*
X140518571Y-98357200D01*
X140518571Y-98357200D02*
X140423333Y-98261961D01*
X140423333Y-98261961D02*
X140375714Y-98166723D01*
X140375714Y-98166723D02*
X140328095Y-97976247D01*
X140328095Y-97976247D02*
X140328095Y-97833390D01*
X140328095Y-97833390D02*
X140375714Y-97642914D01*
X140375714Y-97642914D02*
X140423333Y-97547676D01*
X140423333Y-97547676D02*
X140518571Y-97452438D01*
X140518571Y-97452438D02*
X140661428Y-97404819D01*
X140661428Y-97404819D02*
X140756666Y-97404819D01*
X140756666Y-97404819D02*
X140899523Y-97452438D01*
X140899523Y-97452438D02*
X140947142Y-97500057D01*
X141328095Y-97500057D02*
X141375714Y-97452438D01*
X141375714Y-97452438D02*
X141470952Y-97404819D01*
X141470952Y-97404819D02*
X141709047Y-97404819D01*
X141709047Y-97404819D02*
X141804285Y-97452438D01*
X141804285Y-97452438D02*
X141851904Y-97500057D01*
X141851904Y-97500057D02*
X141899523Y-97595295D01*
X141899523Y-97595295D02*
X141899523Y-97690533D01*
X141899523Y-97690533D02*
X141851904Y-97833390D01*
X141851904Y-97833390D02*
X141280476Y-98404819D01*
X141280476Y-98404819D02*
X141899523Y-98404819D01*
X142851904Y-98404819D02*
X142280476Y-98404819D01*
X142566190Y-98404819D02*
X142566190Y-97404819D01*
X142566190Y-97404819D02*
X142470952Y-97547676D01*
X142470952Y-97547676D02*
X142375714Y-97642914D01*
X142375714Y-97642914D02*
X142280476Y-97690533D01*
X134803333Y-87569580D02*
X134755714Y-87617200D01*
X134755714Y-87617200D02*
X134612857Y-87664819D01*
X134612857Y-87664819D02*
X134517619Y-87664819D01*
X134517619Y-87664819D02*
X134374762Y-87617200D01*
X134374762Y-87617200D02*
X134279524Y-87521961D01*
X134279524Y-87521961D02*
X134231905Y-87426723D01*
X134231905Y-87426723D02*
X134184286Y-87236247D01*
X134184286Y-87236247D02*
X134184286Y-87093390D01*
X134184286Y-87093390D02*
X134231905Y-86902914D01*
X134231905Y-86902914D02*
X134279524Y-86807676D01*
X134279524Y-86807676D02*
X134374762Y-86712438D01*
X134374762Y-86712438D02*
X134517619Y-86664819D01*
X134517619Y-86664819D02*
X134612857Y-86664819D01*
X134612857Y-86664819D02*
X134755714Y-86712438D01*
X134755714Y-86712438D02*
X134803333Y-86760057D01*
X135708095Y-86664819D02*
X135231905Y-86664819D01*
X135231905Y-86664819D02*
X135184286Y-87141009D01*
X135184286Y-87141009D02*
X135231905Y-87093390D01*
X135231905Y-87093390D02*
X135327143Y-87045771D01*
X135327143Y-87045771D02*
X135565238Y-87045771D01*
X135565238Y-87045771D02*
X135660476Y-87093390D01*
X135660476Y-87093390D02*
X135708095Y-87141009D01*
X135708095Y-87141009D02*
X135755714Y-87236247D01*
X135755714Y-87236247D02*
X135755714Y-87474342D01*
X135755714Y-87474342D02*
X135708095Y-87569580D01*
X135708095Y-87569580D02*
X135660476Y-87617200D01*
X135660476Y-87617200D02*
X135565238Y-87664819D01*
X135565238Y-87664819D02*
X135327143Y-87664819D01*
X135327143Y-87664819D02*
X135231905Y-87617200D01*
X135231905Y-87617200D02*
X135184286Y-87569580D01*
X137337142Y-108694819D02*
X137003809Y-108218628D01*
X136765714Y-108694819D02*
X136765714Y-107694819D01*
X136765714Y-107694819D02*
X137146666Y-107694819D01*
X137146666Y-107694819D02*
X137241904Y-107742438D01*
X137241904Y-107742438D02*
X137289523Y-107790057D01*
X137289523Y-107790057D02*
X137337142Y-107885295D01*
X137337142Y-107885295D02*
X137337142Y-108028152D01*
X137337142Y-108028152D02*
X137289523Y-108123390D01*
X137289523Y-108123390D02*
X137241904Y-108171009D01*
X137241904Y-108171009D02*
X137146666Y-108218628D01*
X137146666Y-108218628D02*
X136765714Y-108218628D01*
X138289523Y-108694819D02*
X137718095Y-108694819D01*
X138003809Y-108694819D02*
X138003809Y-107694819D01*
X138003809Y-107694819D02*
X137908571Y-107837676D01*
X137908571Y-107837676D02*
X137813333Y-107932914D01*
X137813333Y-107932914D02*
X137718095Y-107980533D01*
X138860952Y-108123390D02*
X138765714Y-108075771D01*
X138765714Y-108075771D02*
X138718095Y-108028152D01*
X138718095Y-108028152D02*
X138670476Y-107932914D01*
X138670476Y-107932914D02*
X138670476Y-107885295D01*
X138670476Y-107885295D02*
X138718095Y-107790057D01*
X138718095Y-107790057D02*
X138765714Y-107742438D01*
X138765714Y-107742438D02*
X138860952Y-107694819D01*
X138860952Y-107694819D02*
X139051428Y-107694819D01*
X139051428Y-107694819D02*
X139146666Y-107742438D01*
X139146666Y-107742438D02*
X139194285Y-107790057D01*
X139194285Y-107790057D02*
X139241904Y-107885295D01*
X139241904Y-107885295D02*
X139241904Y-107932914D01*
X139241904Y-107932914D02*
X139194285Y-108028152D01*
X139194285Y-108028152D02*
X139146666Y-108075771D01*
X139146666Y-108075771D02*
X139051428Y-108123390D01*
X139051428Y-108123390D02*
X138860952Y-108123390D01*
X138860952Y-108123390D02*
X138765714Y-108171009D01*
X138765714Y-108171009D02*
X138718095Y-108218628D01*
X138718095Y-108218628D02*
X138670476Y-108313866D01*
X138670476Y-108313866D02*
X138670476Y-108504342D01*
X138670476Y-108504342D02*
X138718095Y-108599580D01*
X138718095Y-108599580D02*
X138765714Y-108647200D01*
X138765714Y-108647200D02*
X138860952Y-108694819D01*
X138860952Y-108694819D02*
X139051428Y-108694819D01*
X139051428Y-108694819D02*
X139146666Y-108647200D01*
X139146666Y-108647200D02*
X139194285Y-108599580D01*
X139194285Y-108599580D02*
X139241904Y-108504342D01*
X139241904Y-108504342D02*
X139241904Y-108313866D01*
X139241904Y-108313866D02*
X139194285Y-108218628D01*
X139194285Y-108218628D02*
X139146666Y-108171009D01*
X139146666Y-108171009D02*
X139051428Y-108123390D01*
X143523333Y-139014819D02*
X143190000Y-138538628D01*
X142951905Y-139014819D02*
X142951905Y-138014819D01*
X142951905Y-138014819D02*
X143332857Y-138014819D01*
X143332857Y-138014819D02*
X143428095Y-138062438D01*
X143428095Y-138062438D02*
X143475714Y-138110057D01*
X143475714Y-138110057D02*
X143523333Y-138205295D01*
X143523333Y-138205295D02*
X143523333Y-138348152D01*
X143523333Y-138348152D02*
X143475714Y-138443390D01*
X143475714Y-138443390D02*
X143428095Y-138491009D01*
X143428095Y-138491009D02*
X143332857Y-138538628D01*
X143332857Y-138538628D02*
X142951905Y-138538628D01*
X143856667Y-138014819D02*
X144523333Y-138014819D01*
X144523333Y-138014819D02*
X144094762Y-139014819D01*
X122383333Y-91269580D02*
X122335714Y-91317200D01*
X122335714Y-91317200D02*
X122192857Y-91364819D01*
X122192857Y-91364819D02*
X122097619Y-91364819D01*
X122097619Y-91364819D02*
X121954762Y-91317200D01*
X121954762Y-91317200D02*
X121859524Y-91221961D01*
X121859524Y-91221961D02*
X121811905Y-91126723D01*
X121811905Y-91126723D02*
X121764286Y-90936247D01*
X121764286Y-90936247D02*
X121764286Y-90793390D01*
X121764286Y-90793390D02*
X121811905Y-90602914D01*
X121811905Y-90602914D02*
X121859524Y-90507676D01*
X121859524Y-90507676D02*
X121954762Y-90412438D01*
X121954762Y-90412438D02*
X122097619Y-90364819D01*
X122097619Y-90364819D02*
X122192857Y-90364819D01*
X122192857Y-90364819D02*
X122335714Y-90412438D01*
X122335714Y-90412438D02*
X122383333Y-90460057D01*
X123240476Y-90698152D02*
X123240476Y-91364819D01*
X123002381Y-90317200D02*
X122764286Y-91031485D01*
X122764286Y-91031485D02*
X123383333Y-91031485D01*
X128391905Y-99444819D02*
X128391905Y-98444819D01*
X128391905Y-98444819D02*
X128630000Y-98444819D01*
X128630000Y-98444819D02*
X128772857Y-98492438D01*
X128772857Y-98492438D02*
X128868095Y-98587676D01*
X128868095Y-98587676D02*
X128915714Y-98682914D01*
X128915714Y-98682914D02*
X128963333Y-98873390D01*
X128963333Y-98873390D02*
X128963333Y-99016247D01*
X128963333Y-99016247D02*
X128915714Y-99206723D01*
X128915714Y-99206723D02*
X128868095Y-99301961D01*
X128868095Y-99301961D02*
X128772857Y-99397200D01*
X128772857Y-99397200D02*
X128630000Y-99444819D01*
X128630000Y-99444819D02*
X128391905Y-99444819D01*
X129820476Y-98778152D02*
X129820476Y-99444819D01*
X129582381Y-98397200D02*
X129344286Y-99111485D01*
X129344286Y-99111485D02*
X129963333Y-99111485D01*
X158463333Y-117674819D02*
X158130000Y-117198628D01*
X157891905Y-117674819D02*
X157891905Y-116674819D01*
X157891905Y-116674819D02*
X158272857Y-116674819D01*
X158272857Y-116674819D02*
X158368095Y-116722438D01*
X158368095Y-116722438D02*
X158415714Y-116770057D01*
X158415714Y-116770057D02*
X158463333Y-116865295D01*
X158463333Y-116865295D02*
X158463333Y-117008152D01*
X158463333Y-117008152D02*
X158415714Y-117103390D01*
X158415714Y-117103390D02*
X158368095Y-117151009D01*
X158368095Y-117151009D02*
X158272857Y-117198628D01*
X158272857Y-117198628D02*
X157891905Y-117198628D01*
X158939524Y-117674819D02*
X159130000Y-117674819D01*
X159130000Y-117674819D02*
X159225238Y-117627200D01*
X159225238Y-117627200D02*
X159272857Y-117579580D01*
X159272857Y-117579580D02*
X159368095Y-117436723D01*
X159368095Y-117436723D02*
X159415714Y-117246247D01*
X159415714Y-117246247D02*
X159415714Y-116865295D01*
X159415714Y-116865295D02*
X159368095Y-116770057D01*
X159368095Y-116770057D02*
X159320476Y-116722438D01*
X159320476Y-116722438D02*
X159225238Y-116674819D01*
X159225238Y-116674819D02*
X159034762Y-116674819D01*
X159034762Y-116674819D02*
X158939524Y-116722438D01*
X158939524Y-116722438D02*
X158891905Y-116770057D01*
X158891905Y-116770057D02*
X158844286Y-116865295D01*
X158844286Y-116865295D02*
X158844286Y-117103390D01*
X158844286Y-117103390D02*
X158891905Y-117198628D01*
X158891905Y-117198628D02*
X158939524Y-117246247D01*
X158939524Y-117246247D02*
X159034762Y-117293866D01*
X159034762Y-117293866D02*
X159225238Y-117293866D01*
X159225238Y-117293866D02*
X159320476Y-117246247D01*
X159320476Y-117246247D02*
X159368095Y-117198628D01*
X159368095Y-117198628D02*
X159415714Y-117103390D01*
X156687142Y-104314819D02*
X156353809Y-103838628D01*
X156115714Y-104314819D02*
X156115714Y-103314819D01*
X156115714Y-103314819D02*
X156496666Y-103314819D01*
X156496666Y-103314819D02*
X156591904Y-103362438D01*
X156591904Y-103362438D02*
X156639523Y-103410057D01*
X156639523Y-103410057D02*
X156687142Y-103505295D01*
X156687142Y-103505295D02*
X156687142Y-103648152D01*
X156687142Y-103648152D02*
X156639523Y-103743390D01*
X156639523Y-103743390D02*
X156591904Y-103791009D01*
X156591904Y-103791009D02*
X156496666Y-103838628D01*
X156496666Y-103838628D02*
X156115714Y-103838628D01*
X157639523Y-104314819D02*
X157068095Y-104314819D01*
X157353809Y-104314819D02*
X157353809Y-103314819D01*
X157353809Y-103314819D02*
X157258571Y-103457676D01*
X157258571Y-103457676D02*
X157163333Y-103552914D01*
X157163333Y-103552914D02*
X157068095Y-103600533D01*
X158115714Y-104314819D02*
X158306190Y-104314819D01*
X158306190Y-104314819D02*
X158401428Y-104267200D01*
X158401428Y-104267200D02*
X158449047Y-104219580D01*
X158449047Y-104219580D02*
X158544285Y-104076723D01*
X158544285Y-104076723D02*
X158591904Y-103886247D01*
X158591904Y-103886247D02*
X158591904Y-103505295D01*
X158591904Y-103505295D02*
X158544285Y-103410057D01*
X158544285Y-103410057D02*
X158496666Y-103362438D01*
X158496666Y-103362438D02*
X158401428Y-103314819D01*
X158401428Y-103314819D02*
X158210952Y-103314819D01*
X158210952Y-103314819D02*
X158115714Y-103362438D01*
X158115714Y-103362438D02*
X158068095Y-103410057D01*
X158068095Y-103410057D02*
X158020476Y-103505295D01*
X158020476Y-103505295D02*
X158020476Y-103743390D01*
X158020476Y-103743390D02*
X158068095Y-103838628D01*
X158068095Y-103838628D02*
X158115714Y-103886247D01*
X158115714Y-103886247D02*
X158210952Y-103933866D01*
X158210952Y-103933866D02*
X158401428Y-103933866D01*
X158401428Y-103933866D02*
X158496666Y-103886247D01*
X158496666Y-103886247D02*
X158544285Y-103838628D01*
X158544285Y-103838628D02*
X158591904Y-103743390D01*
D12*
X138969047Y-104335270D02*
X138848095Y-104274794D01*
X138848095Y-104274794D02*
X138727142Y-104153842D01*
X138727142Y-104153842D02*
X138545714Y-103972413D01*
X138545714Y-103972413D02*
X138424761Y-103911937D01*
X138424761Y-103911937D02*
X138303809Y-103911937D01*
X138364285Y-104214318D02*
X138243333Y-104153842D01*
X138243333Y-104153842D02*
X138122380Y-104032889D01*
X138122380Y-104032889D02*
X138061904Y-103790984D01*
X138061904Y-103790984D02*
X138061904Y-103367651D01*
X138061904Y-103367651D02*
X138122380Y-103125746D01*
X138122380Y-103125746D02*
X138243333Y-103004794D01*
X138243333Y-103004794D02*
X138364285Y-102944318D01*
X138364285Y-102944318D02*
X138606190Y-102944318D01*
X138606190Y-102944318D02*
X138727142Y-103004794D01*
X138727142Y-103004794D02*
X138848095Y-103125746D01*
X138848095Y-103125746D02*
X138908571Y-103367651D01*
X138908571Y-103367651D02*
X138908571Y-103790984D01*
X138908571Y-103790984D02*
X138848095Y-104032889D01*
X138848095Y-104032889D02*
X138727142Y-104153842D01*
X138727142Y-104153842D02*
X138606190Y-104214318D01*
X138606190Y-104214318D02*
X138364285Y-104214318D01*
X139331904Y-102944318D02*
X140118095Y-102944318D01*
X140118095Y-102944318D02*
X139694761Y-103428127D01*
X139694761Y-103428127D02*
X139876190Y-103428127D01*
X139876190Y-103428127D02*
X139997142Y-103488603D01*
X139997142Y-103488603D02*
X140057618Y-103549080D01*
X140057618Y-103549080D02*
X140118095Y-103670032D01*
X140118095Y-103670032D02*
X140118095Y-103972413D01*
X140118095Y-103972413D02*
X140057618Y-104093365D01*
X140057618Y-104093365D02*
X139997142Y-104153842D01*
X139997142Y-104153842D02*
X139876190Y-104214318D01*
X139876190Y-104214318D02*
X139513333Y-104214318D01*
X139513333Y-104214318D02*
X139392380Y-104153842D01*
X139392380Y-104153842D02*
X139331904Y-104093365D01*
D11*
X140789580Y-90882857D02*
X140837200Y-90930476D01*
X140837200Y-90930476D02*
X140884819Y-91073333D01*
X140884819Y-91073333D02*
X140884819Y-91168571D01*
X140884819Y-91168571D02*
X140837200Y-91311428D01*
X140837200Y-91311428D02*
X140741961Y-91406666D01*
X140741961Y-91406666D02*
X140646723Y-91454285D01*
X140646723Y-91454285D02*
X140456247Y-91501904D01*
X140456247Y-91501904D02*
X140313390Y-91501904D01*
X140313390Y-91501904D02*
X140122914Y-91454285D01*
X140122914Y-91454285D02*
X140027676Y-91406666D01*
X140027676Y-91406666D02*
X139932438Y-91311428D01*
X139932438Y-91311428D02*
X139884819Y-91168571D01*
X139884819Y-91168571D02*
X139884819Y-91073333D01*
X139884819Y-91073333D02*
X139932438Y-90930476D01*
X139932438Y-90930476D02*
X139980057Y-90882857D01*
X139980057Y-90501904D02*
X139932438Y-90454285D01*
X139932438Y-90454285D02*
X139884819Y-90359047D01*
X139884819Y-90359047D02*
X139884819Y-90120952D01*
X139884819Y-90120952D02*
X139932438Y-90025714D01*
X139932438Y-90025714D02*
X139980057Y-89978095D01*
X139980057Y-89978095D02*
X140075295Y-89930476D01*
X140075295Y-89930476D02*
X140170533Y-89930476D01*
X140170533Y-89930476D02*
X140313390Y-89978095D01*
X140313390Y-89978095D02*
X140884819Y-90549523D01*
X140884819Y-90549523D02*
X140884819Y-89930476D01*
X139884819Y-89311428D02*
X139884819Y-89216190D01*
X139884819Y-89216190D02*
X139932438Y-89120952D01*
X139932438Y-89120952D02*
X139980057Y-89073333D01*
X139980057Y-89073333D02*
X140075295Y-89025714D01*
X140075295Y-89025714D02*
X140265771Y-88978095D01*
X140265771Y-88978095D02*
X140503866Y-88978095D01*
X140503866Y-88978095D02*
X140694342Y-89025714D01*
X140694342Y-89025714D02*
X140789580Y-89073333D01*
X140789580Y-89073333D02*
X140837200Y-89120952D01*
X140837200Y-89120952D02*
X140884819Y-89216190D01*
X140884819Y-89216190D02*
X140884819Y-89311428D01*
X140884819Y-89311428D02*
X140837200Y-89406666D01*
X140837200Y-89406666D02*
X140789580Y-89454285D01*
X140789580Y-89454285D02*
X140694342Y-89501904D01*
X140694342Y-89501904D02*
X140503866Y-89549523D01*
X140503866Y-89549523D02*
X140265771Y-89549523D01*
X140265771Y-89549523D02*
X140075295Y-89501904D01*
X140075295Y-89501904D02*
X139980057Y-89454285D01*
X139980057Y-89454285D02*
X139932438Y-89406666D01*
X139932438Y-89406666D02*
X139884819Y-89311428D01*
X131273333Y-96409819D02*
X130940000Y-95933628D01*
X130701905Y-96409819D02*
X130701905Y-95409819D01*
X130701905Y-95409819D02*
X131082857Y-95409819D01*
X131082857Y-95409819D02*
X131178095Y-95457438D01*
X131178095Y-95457438D02*
X131225714Y-95505057D01*
X131225714Y-95505057D02*
X131273333Y-95600295D01*
X131273333Y-95600295D02*
X131273333Y-95743152D01*
X131273333Y-95743152D02*
X131225714Y-95838390D01*
X131225714Y-95838390D02*
X131178095Y-95886009D01*
X131178095Y-95886009D02*
X131082857Y-95933628D01*
X131082857Y-95933628D02*
X130701905Y-95933628D01*
X131606667Y-95409819D02*
X132225714Y-95409819D01*
X132225714Y-95409819D02*
X131892381Y-95790771D01*
X131892381Y-95790771D02*
X132035238Y-95790771D01*
X132035238Y-95790771D02*
X132130476Y-95838390D01*
X132130476Y-95838390D02*
X132178095Y-95886009D01*
X132178095Y-95886009D02*
X132225714Y-95981247D01*
X132225714Y-95981247D02*
X132225714Y-96219342D01*
X132225714Y-96219342D02*
X132178095Y-96314580D01*
X132178095Y-96314580D02*
X132130476Y-96362200D01*
X132130476Y-96362200D02*
X132035238Y-96409819D01*
X132035238Y-96409819D02*
X131749524Y-96409819D01*
X131749524Y-96409819D02*
X131654286Y-96362200D01*
X131654286Y-96362200D02*
X131606667Y-96314580D01*
X142673333Y-135529580D02*
X142625714Y-135577200D01*
X142625714Y-135577200D02*
X142482857Y-135624819D01*
X142482857Y-135624819D02*
X142387619Y-135624819D01*
X142387619Y-135624819D02*
X142244762Y-135577200D01*
X142244762Y-135577200D02*
X142149524Y-135481961D01*
X142149524Y-135481961D02*
X142101905Y-135386723D01*
X142101905Y-135386723D02*
X142054286Y-135196247D01*
X142054286Y-135196247D02*
X142054286Y-135053390D01*
X142054286Y-135053390D02*
X142101905Y-134862914D01*
X142101905Y-134862914D02*
X142149524Y-134767676D01*
X142149524Y-134767676D02*
X142244762Y-134672438D01*
X142244762Y-134672438D02*
X142387619Y-134624819D01*
X142387619Y-134624819D02*
X142482857Y-134624819D01*
X142482857Y-134624819D02*
X142625714Y-134672438D01*
X142625714Y-134672438D02*
X142673333Y-134720057D01*
X143530476Y-134624819D02*
X143340000Y-134624819D01*
X143340000Y-134624819D02*
X143244762Y-134672438D01*
X143244762Y-134672438D02*
X143197143Y-134720057D01*
X143197143Y-134720057D02*
X143101905Y-134862914D01*
X143101905Y-134862914D02*
X143054286Y-135053390D01*
X143054286Y-135053390D02*
X143054286Y-135434342D01*
X143054286Y-135434342D02*
X143101905Y-135529580D01*
X143101905Y-135529580D02*
X143149524Y-135577200D01*
X143149524Y-135577200D02*
X143244762Y-135624819D01*
X143244762Y-135624819D02*
X143435238Y-135624819D01*
X143435238Y-135624819D02*
X143530476Y-135577200D01*
X143530476Y-135577200D02*
X143578095Y-135529580D01*
X143578095Y-135529580D02*
X143625714Y-135434342D01*
X143625714Y-135434342D02*
X143625714Y-135196247D01*
X143625714Y-135196247D02*
X143578095Y-135101009D01*
X143578095Y-135101009D02*
X143530476Y-135053390D01*
X143530476Y-135053390D02*
X143435238Y-135005771D01*
X143435238Y-135005771D02*
X143244762Y-135005771D01*
X143244762Y-135005771D02*
X143149524Y-135053390D01*
X143149524Y-135053390D02*
X143101905Y-135101009D01*
X143101905Y-135101009D02*
X143054286Y-135196247D01*
D13*
%TO.C,IC6*%
X159460000Y-113400000D02*
G75*
G02*
X159210000Y-113400000I-125000J0D01*
G01*
X159210000Y-113400000D02*
G75*
G02*
X159460000Y-113400000I125000J0D01*
G01*
D14*
%TO.C,C9*%
X125772164Y-122490000D02*
X125987836Y-122490000D01*
X125772164Y-123210000D02*
X125987836Y-123210000D01*
%TO.C,C15*%
X141585000Y-118751252D02*
X141585000Y-118228748D01*
X143055000Y-118751252D02*
X143055000Y-118228748D01*
%TO.C,R8*%
X155937500Y-141072742D02*
X155937500Y-141547258D01*
X156982500Y-141072742D02*
X156982500Y-141547258D01*
%TO.C,R1*%
X154917500Y-109367258D02*
X154917500Y-108892742D01*
X155962500Y-109367258D02*
X155962500Y-108892742D01*
%TO.C,SW1*%
X143390000Y-90330000D02*
X143990000Y-90330000D01*
X143690000Y-90630000D02*
X143390000Y-90330000D01*
X143990000Y-90330000D02*
X143690000Y-90630000D01*
X145090000Y-88530000D02*
X145090000Y-100330000D01*
X149190000Y-88530000D02*
X145090000Y-88530000D01*
X149190000Y-100330000D02*
X145090000Y-100330000D01*
X153190000Y-88530000D02*
X157290000Y-88530000D01*
X157290000Y-88530000D02*
X157290000Y-90930000D01*
X157290000Y-93130000D02*
X157290000Y-95730000D01*
X157290000Y-97930000D02*
X157290000Y-100330000D01*
X157290000Y-100330000D02*
X153190000Y-100330000D01*
X154190000Y-94430000D02*
G75*
G02*
X148190000Y-94430000I-3000000J0D01*
G01*
X148190000Y-94430000D02*
G75*
G02*
X154190000Y-94430000I3000000J0D01*
G01*
%TO.C,J5*%
X156960000Y-117950000D02*
X158340000Y-117950000D01*
X156960000Y-119330000D02*
X156960000Y-117950000D01*
X156960000Y-120600000D02*
X156960000Y-135950000D01*
X156960000Y-120600000D02*
X159720000Y-120600000D01*
X156960000Y-135950000D02*
X159720000Y-135950000D01*
X159720000Y-120600000D02*
X159720000Y-135950000D01*
D15*
%TO.C,D1*%
X149440000Y-135282000D02*
X149440000Y-135282000D01*
X149440000Y-135382000D02*
X149440000Y-135382000D01*
X149440000Y-135282000D02*
G75*
G02*
X149440000Y-135382000I0J-50000D01*
G01*
X149440000Y-135382000D02*
G75*
G02*
X149440000Y-135282000I0J50000D01*
G01*
D14*
%TO.C,R16*%
X131832742Y-122747500D02*
X132307258Y-122747500D01*
X131832742Y-123792500D02*
X132307258Y-123792500D01*
%TO.C,R22*%
X156267258Y-113987500D02*
X155792742Y-113987500D01*
X156267258Y-115032500D02*
X155792742Y-115032500D01*
%TO.C,J2*%
X145520000Y-140680000D02*
X145520000Y-138980000D01*
X154860000Y-140680000D02*
X154860000Y-138980000D01*
%TO.C,J3*%
X121210000Y-122780000D02*
X122590000Y-122780000D01*
X121210000Y-124160000D02*
X121210000Y-122780000D01*
X121210000Y-125430000D02*
X121210000Y-143320000D01*
X121210000Y-125430000D02*
X123970000Y-125430000D01*
X121210000Y-143320000D02*
X123970000Y-143320000D01*
X123970000Y-125430000D02*
X123970000Y-143320000D01*
%TO.C,R17*%
X131712742Y-103687500D02*
X132187258Y-103687500D01*
X131712742Y-104732500D02*
X132187258Y-104732500D01*
%TO.C,C19*%
X159110000Y-102462164D02*
X159110000Y-102677836D01*
X159830000Y-102462164D02*
X159830000Y-102677836D01*
D10*
%TO.C,IC1*%
X130240000Y-99970000D02*
X131640000Y-99970000D01*
X131990000Y-100020000D02*
X132390000Y-100020000D01*
X131990000Y-102920000D02*
X131990000Y-100020000D01*
X132390000Y-100020000D02*
X132390000Y-102920000D01*
X132390000Y-102920000D02*
X131990000Y-102920000D01*
D14*
%TO.C,C10*%
X125898748Y-123705000D02*
X126421252Y-123705000D01*
X125898748Y-125175000D02*
X126421252Y-125175000D01*
%TO.C,R2*%
X133977500Y-97727258D02*
X133977500Y-97252742D01*
X135022500Y-97727258D02*
X135022500Y-97252742D01*
D10*
%TO.C,IC8*%
X145548000Y-111470000D02*
X151848000Y-111470000D01*
X145548000Y-117770000D02*
X145548000Y-111470000D01*
X151848000Y-111470000D02*
X151848000Y-117770000D01*
X151848000Y-117770000D02*
X145548000Y-117770000D01*
D13*
X152323000Y-109895000D02*
G75*
G02*
X152073000Y-109895000I-125000J0D01*
G01*
X152073000Y-109895000D02*
G75*
G02*
X152323000Y-109895000I125000J0D01*
G01*
D14*
%TO.C,C12*%
X151827836Y-120040000D02*
X151612164Y-120040000D01*
X151827836Y-120760000D02*
X151612164Y-120760000D01*
D10*
%TO.C,Q1*%
X122660000Y-96150000D02*
X122660000Y-94950000D01*
X122685000Y-94000000D02*
X125635000Y-94000000D01*
X122685000Y-94600000D02*
X122685000Y-94000000D01*
X125635000Y-94000000D02*
X125635000Y-94600000D01*
X125635000Y-94600000D02*
X122685000Y-94600000D01*
D14*
%TO.C,R5*%
X138097500Y-88057742D02*
X138097500Y-88532258D01*
X139142500Y-88057742D02*
X139142500Y-88532258D01*
D10*
%TO.C,IC4*%
X126580000Y-93075000D02*
X129480000Y-93075000D01*
X126580000Y-93475000D02*
X126580000Y-93075000D01*
X129480000Y-93075000D02*
X129480000Y-93475000D01*
X129480000Y-93475000D02*
X126580000Y-93475000D01*
X129530000Y-91325000D02*
X129530000Y-92725000D01*
D14*
%TO.C,C24*%
X142250000Y-109742836D02*
X142250000Y-109527164D01*
X142970000Y-109742836D02*
X142970000Y-109527164D01*
%TO.C,R4*%
X131172742Y-86927500D02*
X131647258Y-86927500D01*
X131172742Y-87972500D02*
X131647258Y-87972500D01*
D10*
%TO.C,D5*%
X122195000Y-101870000D02*
X127465000Y-101870000D01*
X127185000Y-99270000D02*
X122195000Y-99270000D01*
D14*
%TO.C,R6*%
X125087258Y-102627500D02*
X124612742Y-102627500D01*
X125087258Y-103672500D02*
X124612742Y-103672500D01*
%TO.C,C17*%
X140350000Y-119417836D02*
X140350000Y-119202164D01*
X141070000Y-119417836D02*
X141070000Y-119202164D01*
%TO.C,C8*%
X157690000Y-109837836D02*
X157690000Y-109622164D01*
X158410000Y-109837836D02*
X158410000Y-109622164D01*
%TO.C,C22*%
X152210000Y-106262164D02*
X152210000Y-106477836D01*
X152930000Y-106262164D02*
X152930000Y-106477836D01*
D10*
%TO.C,IC2*%
X134470000Y-90180000D02*
X137370000Y-90180000D01*
X134470000Y-90580000D02*
X134470000Y-90180000D01*
X137370000Y-90180000D02*
X137370000Y-90580000D01*
X137370000Y-90580000D02*
X134470000Y-90580000D01*
X137420000Y-88430000D02*
X137420000Y-89830000D01*
D15*
%TO.C,Y2*%
X150260000Y-104880000D02*
X150260000Y-104880000D01*
X150360000Y-104880000D02*
X150360000Y-104880000D01*
X150260000Y-104880000D02*
G75*
G02*
X150360000Y-104880000I50000J0D01*
G01*
X150360000Y-104880000D02*
G75*
G02*
X150260000Y-104880000I-50000J0D01*
G01*
%TO.C,J4*%
X121810000Y-106885000D02*
X123310000Y-106885000D01*
X121810000Y-120485000D02*
X121810000Y-106885000D01*
X123310000Y-106885000D02*
X123810000Y-106885000D01*
X123310000Y-120485000D02*
X121810000Y-120485000D01*
X123310000Y-120485000D02*
X123810000Y-120485000D01*
X126810000Y-106885000D02*
X132310000Y-106885000D01*
X126810000Y-120485000D02*
X132310000Y-120485000D01*
X135310000Y-120485000D02*
X136310000Y-120485000D01*
X136310000Y-106885000D02*
X135310000Y-106885000D01*
X136310000Y-120485000D02*
X136310000Y-106885000D01*
D10*
X136810000Y-110285000D02*
X136810000Y-110285000D01*
X136810000Y-110485000D02*
X136810000Y-110485000D01*
X136810000Y-110285000D02*
G75*
G02*
X136810000Y-110485000I0J-100000D01*
G01*
X136810000Y-110485000D02*
G75*
G02*
X136810000Y-110285000I0J100000D01*
G01*
D14*
%TO.C,C2*%
X134920000Y-101272164D02*
X134920000Y-101487836D01*
X135640000Y-101272164D02*
X135640000Y-101487836D01*
%TO.C,C1*%
X128680000Y-101192164D02*
X128680000Y-101407836D01*
X129400000Y-101192164D02*
X129400000Y-101407836D01*
%TO.C,R20*%
X143917258Y-102017500D02*
X143442742Y-102017500D01*
X143917258Y-103062500D02*
X143442742Y-103062500D01*
%TO.C,R10*%
X145692742Y-120407500D02*
X146167258Y-120407500D01*
X145692742Y-121452500D02*
X146167258Y-121452500D01*
%TO.C,C18*%
X152922164Y-108460000D02*
X153137836Y-108460000D01*
X152922164Y-109180000D02*
X153137836Y-109180000D01*
%TO.C,R21*%
X141522742Y-106107500D02*
X141997258Y-106107500D01*
X141522742Y-107152500D02*
X141997258Y-107152500D01*
%TO.C,C21*%
X141230000Y-96467836D02*
X141230000Y-96252164D01*
X141950000Y-96467836D02*
X141950000Y-96252164D01*
%TO.C,C5*%
X133160000Y-88152164D02*
X133160000Y-88367836D01*
X133880000Y-88152164D02*
X133880000Y-88367836D01*
%TO.C,R18*%
X138317500Y-110757258D02*
X138317500Y-110282742D01*
X139362500Y-110757258D02*
X139362500Y-110282742D01*
%TO.C,R7*%
X143267500Y-140502742D02*
X143267500Y-140977258D01*
X144312500Y-140502742D02*
X144312500Y-140977258D01*
%TO.C,C4*%
X121705000Y-88551252D02*
X121705000Y-88028748D01*
X123175000Y-88551252D02*
X123175000Y-88028748D01*
D15*
%TO.C,D6*%
X138828000Y-113380000D02*
X138828000Y-113380000D01*
X138928000Y-113380000D02*
X138928000Y-113380000D01*
X138828000Y-113380000D02*
G75*
G02*
X138928000Y-113380000I50000J0D01*
G01*
X138928000Y-113380000D02*
G75*
G02*
X138828000Y-113380000I-50000J0D01*
G01*
D14*
%TO.C,C3*%
X127768748Y-95925000D02*
X128291252Y-95925000D01*
X127768748Y-97395000D02*
X128291252Y-97395000D01*
%TO.C,D4*%
X131620580Y-97830000D02*
X131339420Y-97830000D01*
X131620580Y-98850000D02*
X131339420Y-98850000D01*
%TO.C,R9*%
X158137500Y-114787742D02*
X158137500Y-115262258D01*
X159182500Y-114787742D02*
X159182500Y-115262258D01*
%TO.C,C11*%
X145417836Y-108490000D02*
X145202164Y-108490000D01*
X145417836Y-109210000D02*
X145202164Y-109210000D01*
D15*
%TO.C,Q2*%
X135950000Y-94120000D02*
X135950000Y-94120000D01*
X136050000Y-94120000D02*
X136050000Y-94120000D01*
D10*
X138650000Y-93640000D02*
X137800000Y-93640000D01*
X138650000Y-94270000D02*
X138650000Y-93640000D01*
X138650000Y-95870000D02*
X138650000Y-96500000D01*
X138650000Y-96500000D02*
X137800000Y-96500000D01*
D15*
X135950000Y-94120000D02*
G75*
G02*
X136050000Y-94120000I50000J0D01*
G01*
X136050000Y-94120000D02*
G75*
G02*
X135950000Y-94120000I-50000J0D01*
G01*
D14*
%TO.C,R19*%
X157057742Y-101847500D02*
X157532258Y-101847500D01*
X157057742Y-102892500D02*
X157532258Y-102892500D01*
%TO.C,C16*%
X154120000Y-111572164D02*
X154120000Y-111787836D01*
X154840000Y-111572164D02*
X154840000Y-111787836D01*
%TO.C,C23*%
X145350000Y-105517836D02*
X145350000Y-105302164D01*
X146070000Y-105517836D02*
X146070000Y-105302164D01*
D10*
%TO.C,Q3*%
X137660000Y-99670000D02*
X137660000Y-100520000D01*
D15*
X138140000Y-102270000D02*
X138140000Y-102270000D01*
X138140000Y-102370000D02*
X138140000Y-102370000D01*
D10*
X138290000Y-99670000D02*
X137660000Y-99670000D01*
X139890000Y-99670000D02*
X140520000Y-99670000D01*
X140520000Y-99670000D02*
X140520000Y-100520000D01*
D15*
X138140000Y-102270000D02*
G75*
G02*
X138140000Y-102370000I0J-50000D01*
G01*
X138140000Y-102370000D02*
G75*
G02*
X138140000Y-102270000I0J50000D01*
G01*
D14*
%TO.C,C20*%
X141230000Y-90347836D02*
X141230000Y-90132164D01*
X141950000Y-90347836D02*
X141950000Y-90132164D01*
%TO.C,C7*%
X158860000Y-108492164D02*
X158860000Y-108707836D01*
X159580000Y-108492164D02*
X159580000Y-108707836D01*
%TO.C,R3*%
X131677258Y-94002500D02*
X131202742Y-94002500D01*
X131677258Y-95047500D02*
X131202742Y-95047500D01*
D13*
%TO.C,IC7*%
X156845000Y-104630000D02*
G75*
G02*
X156595000Y-104630000I-125000J0D01*
G01*
X156595000Y-104630000D02*
G75*
G02*
X156845000Y-104630000I125000J0D01*
G01*
D14*
%TO.C,J1*%
X124000000Y-90140000D02*
X124000000Y-88760000D01*
X125380000Y-90140000D02*
X124000000Y-90140000D01*
X126650000Y-87380000D02*
X129300000Y-87380000D01*
X126650000Y-90140000D02*
X126650000Y-87380000D01*
X126650000Y-90140000D02*
X129300000Y-90140000D01*
X129300000Y-90140000D02*
X129300000Y-87380000D01*
%TO.C,C6*%
X146611252Y-134185000D02*
X146088748Y-134185000D01*
X146611252Y-135655000D02*
X146088748Y-135655000D01*
%TD*%
M02*
