%TF.GenerationSoftware,KiCad,Pcbnew,9.0.3*%
%TF.CreationDate,2026-07-19T12:35:17+02:00*%
%TF.ProjectId,STM32-S-Plant,53544d33-322d-4532-9d50-6c616e742e6b,rev?*%
%TF.SameCoordinates,Original*%
%TF.FileFunction,Paste,Top*%
%TF.FilePolarity,Positive*%
%FSLAX46Y46*%
G04 Gerber Fmt 4.6, Leading zero omitted, Abs format (unit mm)*
G04 Created by KiCad (PCBNEW 9.0.3) date 2026-07-19 12:35:17*
%MOMM*%
%LPD*%
G01*
G04 APERTURE LIST*
G04 Aperture macros list*
%AMRoundRect*
0 Rectangle with rounded corners*
0 $1 Rounding radius*
0 $2 $3 $4 $5 $6 $7 $8 $9 X,Y pos of 4 corners*
0 Add a 4 corners polygon primitive as box body*
4,1,4,$2,$3,$4,$5,$6,$7,$8,$9,$2,$3,0*
0 Add four circle primitives for the rounded corners*
1,1,$1+$1,$2,$3*
1,1,$1+$1,$4,$5*
1,1,$1+$1,$6,$7*
1,1,$1+$1,$8,$9*
0 Add four rect primitives between the rounded corners*
20,1,$1+$1,$2,$3,$4,$5,0*
20,1,$1+$1,$4,$5,$6,$7,0*
20,1,$1+$1,$6,$7,$8,$9,0*
20,1,$1+$1,$8,$9,$2,$3,0*%
G04 Aperture macros list end*
%ADD10R,0.750000X0.300000*%
%ADD11R,0.750000X1.450000*%
%ADD12RoundRect,0.140000X-0.140000X-0.170000X0.140000X-0.170000X0.140000X0.170000X-0.140000X0.170000X0*%
%ADD13RoundRect,0.250000X0.475000X-0.250000X0.475000X0.250000X-0.475000X0.250000X-0.475000X-0.250000X0*%
%ADD14RoundRect,0.200000X-0.275000X0.200000X-0.275000X-0.200000X0.275000X-0.200000X0.275000X0.200000X0*%
%ADD15RoundRect,0.200000X0.275000X-0.200000X0.275000X0.200000X-0.275000X0.200000X-0.275000X-0.200000X0*%
%ADD16R,0.250000X0.625000*%
%ADD17R,0.450000X0.700000*%
%ADD18R,0.450000X0.575000*%
%ADD19RoundRect,0.200000X-0.200000X-0.275000X0.200000X-0.275000X0.200000X0.275000X-0.200000X0.275000X0*%
%ADD20RoundRect,0.200000X0.200000X0.275000X-0.200000X0.275000X-0.200000X-0.275000X0.200000X-0.275000X0*%
%ADD21RoundRect,0.150000X-0.150000X-0.425000X0.150000X-0.425000X0.150000X0.425000X-0.150000X0.425000X0*%
%ADD22RoundRect,0.075000X-0.075000X-0.500000X0.075000X-0.500000X0.075000X0.500000X-0.075000X0.500000X0*%
%ADD23O,1.000000X2.100000*%
%ADD24O,1.000000X1.800000*%
%ADD25RoundRect,0.140000X-0.170000X0.140000X-0.170000X-0.140000X0.170000X-0.140000X0.170000X0.140000X0*%
%ADD26R,1.400000X0.600000*%
%ADD27RoundRect,0.250000X-0.250000X-0.475000X0.250000X-0.475000X0.250000X0.475000X-0.250000X0.475000X0*%
%ADD28R,0.300000X1.475000*%
%ADD29R,1.475000X0.300000*%
%ADD30RoundRect,0.140000X0.140000X0.170000X-0.140000X0.170000X-0.140000X-0.170000X0.140000X-0.170000X0*%
%ADD31R,0.600000X1.200000*%
%ADD32R,0.600000X1.400000*%
%ADD33RoundRect,0.140000X0.170000X-0.140000X0.170000X0.140000X-0.170000X0.140000X-0.170000X-0.140000X0*%
%ADD34R,2.250000X1.550000*%
%ADD35R,1.400000X1.200000*%
%ADD36R,1.500000X0.800000*%
%ADD37R,2.000000X1.450000*%
%ADD38R,0.625000X0.250000*%
%ADD39R,0.700000X0.450000*%
%ADD40R,0.575000X0.450000*%
%ADD41RoundRect,0.225000X0.225000X0.250000X-0.225000X0.250000X-0.225000X-0.250000X0.225000X-0.250000X0*%
%ADD42R,1.000000X1.000000*%
%ADD43R,0.800000X0.300000*%
%ADD44R,1.200000X1.900000*%
%ADD45RoundRect,0.250000X0.250000X0.475000X-0.250000X0.475000X-0.250000X-0.475000X0.250000X-0.475000X0*%
G04 APERTURE END LIST*
D10*
%TO.C,IC6*%
X158960000Y-112750000D03*
X158960000Y-112100000D03*
X158960000Y-111450000D03*
X156960000Y-111450000D03*
X156960000Y-112100000D03*
X156960000Y-112750000D03*
D11*
X157960000Y-112100000D03*
%TD*%
D12*
%TO.C,C9*%
X125400000Y-122850000D03*
X126360000Y-122850000D03*
%TD*%
D13*
%TO.C,C15*%
X142320000Y-119440000D03*
X142320000Y-117540000D03*
%TD*%
D14*
%TO.C,R8*%
X156460000Y-140485000D03*
X156460000Y-142135000D03*
%TD*%
D15*
%TO.C,R1*%
X155440000Y-109955000D03*
X155440000Y-108305000D03*
%TD*%
D16*
%TO.C,D1*%
X149440000Y-134470000D03*
X149940000Y-134470000D03*
D17*
X150440000Y-134432000D03*
D16*
X150940000Y-134470000D03*
X151440000Y-134470000D03*
X151440000Y-133694000D03*
X150940000Y-133694000D03*
D18*
X150440000Y-133669000D03*
D16*
X149940000Y-133695000D03*
X149440000Y-133695000D03*
%TD*%
D19*
%TO.C,R16*%
X131245000Y-123270000D03*
X132895000Y-123270000D03*
%TD*%
D20*
%TO.C,R22*%
X156855000Y-114510000D03*
X155205000Y-114510000D03*
%TD*%
D21*
%TO.C,J2*%
X146990000Y-137100000D03*
X147790000Y-137100000D03*
D22*
X148940000Y-137100000D03*
X149940000Y-137100000D03*
X150440000Y-137100000D03*
X151440000Y-137100000D03*
D21*
X152590000Y-137100000D03*
X153390000Y-137100000D03*
X153390000Y-137100000D03*
X152590000Y-137100000D03*
D22*
X151940000Y-137100000D03*
X150940000Y-137100000D03*
X149440000Y-137100000D03*
X148440000Y-137100000D03*
D21*
X147790000Y-137100000D03*
X146990000Y-137100000D03*
D23*
X145870000Y-137675000D03*
D24*
X145870000Y-141855000D03*
D23*
X154510000Y-137675000D03*
D24*
X154510000Y-141855000D03*
%TD*%
D19*
%TO.C,R17*%
X131125000Y-104210000D03*
X132775000Y-104210000D03*
%TD*%
D25*
%TO.C,C19*%
X159470000Y-102090000D03*
X159470000Y-103050000D03*
%TD*%
D26*
%TO.C,IC1*%
X130940000Y-100520000D03*
X130940000Y-101470000D03*
X130940000Y-102420000D03*
X133440000Y-102420000D03*
X133440000Y-100520000D03*
%TD*%
D27*
%TO.C,C10*%
X125210000Y-124440000D03*
X127110000Y-124440000D03*
%TD*%
D15*
%TO.C,R2*%
X134500000Y-98315000D03*
X134500000Y-96665000D03*
%TD*%
D28*
%TO.C,IC8*%
X151448000Y-110382000D03*
X150948000Y-110382000D03*
X150448000Y-110382000D03*
X149948000Y-110382000D03*
X149448000Y-110382000D03*
X148948000Y-110382000D03*
X148448000Y-110382000D03*
X147948000Y-110382000D03*
X147448000Y-110382000D03*
X146948000Y-110382000D03*
X146448000Y-110382000D03*
X145948000Y-110382000D03*
D29*
X144460000Y-111870000D03*
X144460000Y-112370000D03*
X144460000Y-112870000D03*
X144460000Y-113370000D03*
X144460000Y-113870000D03*
X144460000Y-114370000D03*
X144460000Y-114870000D03*
X144460000Y-115370000D03*
X144460000Y-115870000D03*
X144460000Y-116370000D03*
X144460000Y-116870000D03*
X144460000Y-117370000D03*
D28*
X145948000Y-118858000D03*
X146448000Y-118858000D03*
X146948000Y-118858000D03*
X147448000Y-118858000D03*
X147948000Y-118858000D03*
X148448000Y-118858000D03*
X148948000Y-118858000D03*
X149448000Y-118858000D03*
X149948000Y-118858000D03*
X150448000Y-118858000D03*
X150948000Y-118858000D03*
X151448000Y-118858000D03*
D29*
X152936000Y-117370000D03*
X152936000Y-116870000D03*
X152936000Y-116370000D03*
X152936000Y-115870000D03*
X152936000Y-115370000D03*
X152936000Y-114870000D03*
X152936000Y-114370000D03*
X152936000Y-113870000D03*
X152936000Y-113370000D03*
X152936000Y-112870000D03*
X152936000Y-112370000D03*
X152936000Y-111870000D03*
%TD*%
D30*
%TO.C,C12*%
X152200000Y-120400000D03*
X151240000Y-120400000D03*
%TD*%
D31*
%TO.C,Q1*%
X123210000Y-95550000D03*
X125110000Y-95550000D03*
X124160000Y-93050000D03*
%TD*%
D14*
%TO.C,R5*%
X138620000Y-87470000D03*
X138620000Y-89120000D03*
%TD*%
D32*
%TO.C,IC4*%
X128980000Y-92025000D03*
X128030000Y-92025000D03*
X127080000Y-92025000D03*
X127080000Y-94525000D03*
X128980000Y-94525000D03*
%TD*%
D33*
%TO.C,C24*%
X142610000Y-110115000D03*
X142610000Y-109155000D03*
%TD*%
D19*
%TO.C,R4*%
X130585000Y-87450000D03*
X132235000Y-87450000D03*
%TD*%
D34*
%TO.C,D5*%
X126690000Y-100570000D03*
X122690000Y-100570000D03*
%TD*%
D20*
%TO.C,R6*%
X125675000Y-103150000D03*
X124025000Y-103150000D03*
%TD*%
D33*
%TO.C,C17*%
X140710000Y-119790000D03*
X140710000Y-118830000D03*
%TD*%
%TO.C,C8*%
X158050000Y-110210000D03*
X158050000Y-109250000D03*
%TD*%
D25*
%TO.C,C22*%
X152570000Y-105890000D03*
X152570000Y-106850000D03*
%TD*%
D32*
%TO.C,IC2*%
X136870000Y-89130000D03*
X135920000Y-89130000D03*
X134970000Y-89130000D03*
X134970000Y-91630000D03*
X136870000Y-91630000D03*
%TD*%
D35*
%TO.C,Y2*%
X150260000Y-105930000D03*
X148060000Y-105930000D03*
X148060000Y-107630000D03*
X150260000Y-107630000D03*
%TD*%
D36*
%TO.C,J4*%
X131160000Y-110480000D03*
X131160000Y-111580000D03*
X131160000Y-112680000D03*
X131160000Y-113780000D03*
X131160000Y-114880000D03*
X131160000Y-115980000D03*
X131160000Y-117080000D03*
X131160000Y-118180000D03*
D37*
X133760000Y-120560000D03*
X125460000Y-120560000D03*
X125460000Y-106810000D03*
X133760000Y-106810000D03*
%TD*%
D25*
%TO.C,C2*%
X135280000Y-100900000D03*
X135280000Y-101860000D03*
%TD*%
%TO.C,C1*%
X129040000Y-100820000D03*
X129040000Y-101780000D03*
%TD*%
D20*
%TO.C,R20*%
X144505000Y-102540000D03*
X142855000Y-102540000D03*
%TD*%
D19*
%TO.C,R10*%
X145105000Y-120930000D03*
X146755000Y-120930000D03*
%TD*%
D12*
%TO.C,C18*%
X152550000Y-108820000D03*
X153510000Y-108820000D03*
%TD*%
D19*
%TO.C,R21*%
X140935000Y-106630000D03*
X142585000Y-106630000D03*
%TD*%
D33*
%TO.C,C21*%
X141590000Y-96840000D03*
X141590000Y-95880000D03*
%TD*%
D25*
%TO.C,C5*%
X133520000Y-87780000D03*
X133520000Y-88740000D03*
%TD*%
D15*
%TO.C,R18*%
X138840000Y-111345000D03*
X138840000Y-109695000D03*
%TD*%
D14*
%TO.C,R7*%
X143790000Y-139915000D03*
X143790000Y-141565000D03*
%TD*%
D13*
%TO.C,C4*%
X122440000Y-89240000D03*
X122440000Y-87340000D03*
%TD*%
D38*
%TO.C,D6*%
X139740000Y-113380000D03*
X139740000Y-113880000D03*
D39*
X139778000Y-114380000D03*
D38*
X139740000Y-114880000D03*
X139740000Y-115380000D03*
X140516000Y-115380000D03*
X140516000Y-114880000D03*
D40*
X140541000Y-114380000D03*
D38*
X140515000Y-113880000D03*
X140515000Y-113380000D03*
%TD*%
D27*
%TO.C,C3*%
X127080000Y-96660000D03*
X128980000Y-96660000D03*
%TD*%
D41*
%TO.C,D4*%
X132255000Y-98340000D03*
X130705000Y-98340000D03*
%TD*%
D14*
%TO.C,R9*%
X158660000Y-114200000D03*
X158660000Y-115850000D03*
%TD*%
D30*
%TO.C,C11*%
X145790000Y-108850000D03*
X144830000Y-108850000D03*
%TD*%
D42*
%TO.C,Q2*%
X136950000Y-94120000D03*
X136950000Y-96020000D03*
X139050000Y-95070000D03*
%TD*%
D19*
%TO.C,R19*%
X156470000Y-102370000D03*
X158120000Y-102370000D03*
%TD*%
D25*
%TO.C,C16*%
X154480000Y-111200000D03*
X154480000Y-112160000D03*
%TD*%
D33*
%TO.C,C23*%
X145710000Y-105890000D03*
X145710000Y-104930000D03*
%TD*%
D42*
%TO.C,Q3*%
X138140000Y-101370000D03*
X140040000Y-101370000D03*
X139090000Y-99270000D03*
%TD*%
D33*
%TO.C,C20*%
X141590000Y-90720000D03*
X141590000Y-89760000D03*
%TD*%
D25*
%TO.C,C7*%
X159220000Y-108120000D03*
X159220000Y-109080000D03*
%TD*%
D20*
%TO.C,R3*%
X132265000Y-94525000D03*
X130615000Y-94525000D03*
%TD*%
D43*
%TO.C,IC7*%
X157120000Y-105280000D03*
X157120000Y-105780000D03*
X157120000Y-106280000D03*
X157120000Y-106780000D03*
X159520000Y-106780000D03*
X159520000Y-106280000D03*
X159520000Y-105780000D03*
X159520000Y-105280000D03*
D44*
X158320000Y-106030000D03*
%TD*%
D45*
%TO.C,C6*%
X147300000Y-134920000D03*
X145400000Y-134920000D03*
%TD*%
M02*
